<?xml version="1.0" encoding="utf-8"?>
<!-- Generator: Adobe Illustrator 25.2.0, SVG Export Plug-In . SVG Version: 6.00 Build 0)  -->
<svg version="1.1" id="Capa_1" xmlns="http://www.w3.org/2000/svg" xmlns:xlink="http://www.w3.org/1999/xlink" x="0px" y="0px"
	 viewBox="0 0 1547.1 259.8" style="enable-background:new 0 0 1547.1 259.8;" xml:space="preserve">
<style type="text/css">
	.st0{fill:#FFFFFF;}
</style>
<path class="st0" d="M738.5,59.5v141.7h-39.4V123l-26.7,78.2h-33l-26.9-78.8v78.8H573V59.5h47.6l35.6,92.1L691,59.5H738.5z"/>
<path class="st0" d="M850.6,178h-50.2l-7.6,23.1h-41.4L803,59.5h45.4l51.5,141.7h-41.6L850.6,178z M840.8,147.9l-15.3-45.8
	l-15.1,45.8L840.8,147.9z"/>
<path class="st0" d="M1078.2,59.5v141.7h-39.4V123l-26.8,78.2h-33l-26.9-78.8v78.8h-39.4V59.5h47.6l35.6,92.1l34.8-92.1L1078.2,59.5
	z"/>
<path class="st0" d="M1132,193.2c-11-6.1-20.1-15.1-26.4-25.9c-6.5-11.1-9.8-23.6-9.8-37.5c0-13.9,3.2-26.4,9.8-37.5
	c6.3-10.9,15.4-19.8,26.4-25.8c22.9-12.3,50.4-12.3,73.3,0c10.9,6.1,20,15,26.2,25.8c6.4,11.1,9.6,23.6,9.6,37.5s-3.2,26.4-9.6,37.5
	c-6.3,10.9-15.4,19.8-26.3,25.9C1182.4,205.7,1154.8,205.7,1132,193.2z M1192.4,156.1c5.8-6.6,8.7-15.3,8.7-26.3
	c0-11.3-2.9-20.1-8.7-26.6s-13.8-9.7-23.8-9.8c-10.2,0-18.2,3.2-23.9,9.8c-5.8,6.5-8.7,15.4-8.7,26.6c0,11.1,2.9,19.9,8.6,26.4
	s13.7,9.8,24,9.8C1178.7,166,1186.6,162.7,1192.4,156.1L1192.4,156.1z"/>
<path class="st0" d="M1290.2,193.2c-11-6.1-20.1-15.1-26.4-25.9c-6.5-11.1-9.8-23.6-9.8-37.5c0-13.9,3.2-26.4,9.8-37.5
	c6.3-10.9,15.4-19.8,26.4-25.8c22.9-12.3,50.4-12.3,73.3,0c10.9,6.1,20,15,26.2,25.8c6.4,11.1,9.7,23.6,9.7,37.5
	c0,13.9-3.2,26.4-9.7,37.5c-6.3,10.9-15.4,19.8-26.3,25.9C1340.6,205.7,1313,205.7,1290.2,193.2z M1350.6,156.1
	c5.8-6.6,8.7-15.3,8.7-26.3c0-11.3-2.9-20.1-8.7-26.6s-13.8-9.7-23.8-9.8c-10.2,0-18.2,3.2-23.9,9.8c-5.8,6.5-8.6,15.4-8.6,26.6
	c0,11.1,2.9,19.9,8.6,26.4s13.7,9.8,23.9,9.8C1336.8,166,1344.8,162.7,1350.6,156.1z"/>
<path class="st0" d="M1512.2,68.4c10.9,5.6,19.8,14.3,25.8,25c6,10.7,9,23,9,36.8c0,13.7-3,25.9-9.1,36.6
	c-6.1,10.7-15.1,19.4-25.9,25.2c-11.2,6.1-24.2,9.1-38.9,9.1H1417V59.5h56.1C1488,59.5,1501,62.4,1512.2,68.4z M1497.2,156.9
	c6.6-6.3,9.9-15.2,9.8-26.7c0-11.7-3.3-20.7-9.8-27s-15.6-9.5-27.1-9.6h-13.7v72.8h13.7C1481.6,166.4,1490.7,163.2,1497.2,156.9
	L1497.2,156.9z"/>
<path class="st0" d="M412.8,48.9c-3-0.4-6.1-0.6-9.1-0.6l0,0c-1.9,0-3.8,0.1-5.7,0.3l0,0h0.4c1.8,0.1,3.6,0.3,5.4,0.5
	c32.4,4,60.5,24.5,74.2,54.1c1.8,4.8,3.2,9.7,4.1,14.8c0.3,1.5,0.5,3.1,0.7,4.7l0,0l0.1,0.6l0,0v0.1v0.2l0,0c0.5,4,0.8,8.1,0.8,12.1
	c0,24.9-9.6,47.4-24.9,63.3l0,0.1c-16.4,19.3-47.9,29.2-76.1,27.8c-5.9-0.2-11.8-1-17.5-2.4l-2.9-0.8c-0.3-0.1-0.6-0.2-0.9-0.3
	l-0.2-0.1c-21.3-6.4-25-18.7-25.2-26.1c0-1.3,0-2.6,0.2-3.8c0-0.2,0.1-0.5,0.1-0.7s0-0.2,0-0.2c0.1-0.4,0.2-0.9,0.3-1.3
	c1,3.5,2.6,6.8,4.7,9.7c2,2.6,4.5,4.8,7.3,6.6c2.8,1.8,5.9,3.2,9,4.4c0.8,0.3,1.6,0.6,2.4,0.9s1.6,0.6,2.5,0.8s1.7,0.5,2.5,0.8
	l2.5,0.7c3,0.8,10.1,1.4,13.2,2.1C320.8,181.1,334.3,0,334.3,0h-67.2l-12.4,16.2L241.6,0h-66.5c0,0,13,181.1-46.9,216.9
	c3.1-0.6,10.7-1.3,13.7-2.1l2.6-0.7c0.8-0.2,1.7-0.5,2.5-0.8s1.6-0.5,2.5-0.8s1.6-0.6,2.4-0.9c3.1-1.1,6.2-2.6,9-4.4
	c2.8-1.7,5.3-4,7.3-6.6c2.1-2.9,3.7-6.2,4.7-9.7l0,0c0.1,0.4,0.2,0.9,0.3,1.3c0,0.1,0,0.2,0.1,0.3s0.1,0.4,0.1,0.7
	c0.2,1.3,0.3,2.6,0.2,3.9c-0.2,7.4-3.9,19.6-25.2,26.1l-0.2,0.1c-0.3,0.1-0.6,0.2-0.9,0.3l-2.8,0.8c-5.8,1.4-11.7,2.2-17.6,2.4
	c-28.2,1.4-59.7-8.6-76.1-27.8l-0.2-0.2c-15.3-15.9-24.8-38.4-24.8-63.2c0-4.1,0.3-8.1,0.8-12.1l0.1-0.6l0,0
	c0.2-1.7,0.5-3.3,0.8-4.9c1-5,2.3-10,4.1-14.8c13.7-29.7,41.8-50.1,74.2-54.1c1.8-0.2,3.6-0.4,5.4-0.5c0.1,0,0.2,0,0.4,0
	c-1.9-0.2-3.8-0.3-5.8-0.3l0,0c-3,0-6.1,0.2-9.1,0.6c-58.1,5-101.2,56.2-96.2,114.3c4.7,54.6,50.4,96.6,105.3,96.6l0,0
	c1.3,0,2.5,0,3.8-0.1c94.3-2.7,109.8-104.6,113.4-136.3v-1.9c0-0.8,0-6.8,0-6.8V65l31.8,32.5L271.4,81l15.1-16v41.3
	c0,0,0.2,11.3,0,16.6l-0.1,0.3c3.4,31.2,18.7,133.9,113.4,136.6c1.3,0,2.5,0.1,3.8,0.1l0,0c58.4,0,105.7-47.3,105.7-105.6
	C509.4,99.4,467.4,53.6,412.8,48.9L412.8,48.9z"/>
</svg>
