<svg id="Capa_1" data-name="Capa 1" xmlns="http://www.w3.org/2000/svg" viewBox="0 0 1547.08 259.82"><defs><style>.cls-1{fill:#30302f;}</style></defs><path class="cls-1" d="M738.47,59.46v141.7h-39.4V123l-26.73,78.19h-33l-26.93-78.79v78.79H573V59.46h47.64l35.58,92.06L691,59.46Z"/><path class="cls-1" d="M850.62,178.05H800.37l-7.64,23.11h-41.4L803,59.46h45.42l51.46,141.7H858.26Zm-9.85-30.15L825.5,102.07,810.42,147.9Z"/><path class="cls-1" d="M1078.15,59.46v141.7h-39.39V123L1012,201.16h-33l-26.93-78.79v78.79h-39.4V59.46h47.64l35.57,92.06,34.78-92.06Z"/><path class="cls-1" d="M1132,193.22a69.67,69.67,0,0,1-26.43-25.92q-9.75-16.59-9.75-37.49t9.75-37.49A69,69,0,0,1,1132,66.49a77.25,77.25,0,0,1,73.27,0,68.56,68.56,0,0,1,26.23,25.83q9.64,16.59,9.64,37.49t-9.64,37.49a69,69,0,0,1-26.33,25.92,76.25,76.25,0,0,1-73.17,0Zm60.4-37.08q8.74-9.85,8.74-26.33,0-16.89-8.74-26.63t-23.82-9.75q-15.27,0-23.92,9.75T1136,129.81q0,16.68,8.64,26.43T1168.6,166Q1183.68,166,1192.42,156.14Z"/><path class="cls-1" d="M1290.21,193.22a69.63,69.63,0,0,1-26.44-25.92q-9.75-16.59-9.75-37.49t9.75-37.49a69,69,0,0,1,26.44-25.83,77.23,77.23,0,0,1,73.26,0,68.49,68.49,0,0,1,26.23,25.83q9.65,16.59,9.65,37.49t-9.65,37.49a68.92,68.92,0,0,1-26.33,25.92,76.23,76.23,0,0,1-73.16,0Zm60.4-37.08q8.75-9.85,8.74-26.33,0-16.89-8.74-26.63t-23.82-9.75q-15.29,0-23.92,9.75t-8.64,26.63q0,16.68,8.64,26.43t23.92,9.75Q1341.86,166,1350.61,156.14Z"/><path class="cls-1" d="M1512.21,68.4a63,63,0,0,1,25.83,25q9,16.08,9,36.78,0,20.5-9.14,36.58A64.94,64.94,0,0,1,1512,192q-16.79,9.15-38.9,9.14H1417V59.46h56.08Q1495.43,59.46,1512.21,68.4Zm-15,88.54q9.86-9.44,9.85-26.73,0-17.49-9.85-27t-27.13-9.55h-13.67v72.76h13.67Q1487.38,166.39,1497.23,156.94Z"/><path class="cls-1" d="M412.79,48.89a74,74,0,0,0-9.1-.57h0c-1.93,0-3.84.11-5.74.26h0l.36,0c1.81.11,3.6.29,5.38.51a94.51,94.51,0,0,1,74.2,54.13A92.1,92.1,0,0,1,482,118c.29,1.54.53,3.11.74,4.68h0l.08.6h0v.06l0,.2h0a94.78,94.78,0,0,1,.79,12.12c0,24.89-9.58,47.39-24.93,63.31l-.05.06c-16.41,19.29-47.92,29.21-76.08,27.84A82.1,82.1,0,0,1,365,224.47l-2.85-.8c-.31-.09-.61-.2-.92-.3l-.24-.07c-21.26-6.44-25-18.7-25.19-26.09a21.14,21.14,0,0,1,.23-3.83c0-.25.08-.49.12-.71s0-.17.05-.25a11.19,11.19,0,0,1,.32-1.33,30.34,30.34,0,0,0,4.68,9.69,27.44,27.44,0,0,0,7.32,6.58,47.47,47.47,0,0,0,9,4.36c.79.3,1.59.6,2.42.86s1.62.57,2.46.79,1.66.52,2.5.76l2.55.66c3,.76,10.13,1.43,13.2,2.06C320.78,181.12,334.28,0,334.28,0h-67.2l-12.4,16.24L241.64,0H175.1s13,181.12-46.86,216.85c3.08-.63,10.69-1.3,13.67-2.06l2.55-.66c.84-.24,1.66-.52,2.49-.76s1.65-.52,2.47-.79,1.63-.56,2.42-.86a47.47,47.47,0,0,0,9-4.36,27.25,27.25,0,0,0,7.31-6.58,30,30,0,0,0,4.69-9.69h0a10.84,10.84,0,0,1,.32,1.32c0,.09,0,.19.05.28s.08.43.11.68a19.63,19.63,0,0,1,.23,3.85c-.16,7.39-3.93,19.64-25.18,26.08l-.24.07c-.31.1-.62.21-.93.3l-2.84.8a82.1,82.1,0,0,1-17.59,2.41c-28.16,1.37-59.67-8.55-76.08-27.84l-.15-.18c-15.29-15.92-24.84-38.35-24.84-63.19a95.05,95.05,0,0,1,.79-12.13l.07-.62h0c.22-1.65.47-3.29.78-4.91a92.1,92.1,0,0,1,4.09-14.76,94.51,94.51,0,0,1,74.19-54.13c1.78-.22,3.57-.4,5.38-.51.13,0,.25,0,.38,0-1.91-.15-3.82-.26-5.76-.26h0a73.82,73.82,0,0,0-9.09.57,105.66,105.66,0,0,0,9.09,210.93h0c1.27,0,2.53,0,3.79-.08,94.29-2.66,109.84-104.6,113.39-136.33v-1.93c0-.79,0-6.75,0-6.75V65l31.83,32.47L271.41,81l15.11-16v41.28s.16,11.26,0,16.58l-.06.32c3.42,31.2,18.71,133.93,113.45,136.6,1.26.05,2.52.08,3.78.08h0a105.66,105.66,0,0,0,9.1-210.93Z"/></svg>