<?xml version="1.0" encoding="UTF-8" standalone="no"?>
<svg
   xmlns:dc="http://purl.org/dc/elements/1.1/"
   xmlns:cc="http://creativecommons.org/ns#"
   xmlns:rdf="http://www.w3.org/1999/02/22-rdf-syntax-ns#"
   xmlns:svg="http://www.w3.org/2000/svg"
   xmlns="http://www.w3.org/2000/svg"
   viewBox="0 0 113.38667 35.533333"
   height="35.533333"
   width="113.38667"
   xml:space="preserve"
   id="svg2"
   version="1.1"><metadata
     id="metadata8"><rdf:RDF><cc:Work
         rdf:about=""><dc:format>image/svg+xml</dc:format><dc:type
           rdf:resource="http://purl.org/dc/dcmitype/StillImage" /></cc:Work></rdf:RDF></metadata><defs
     id="defs6" /><g
     transform="matrix(1.3333333,0,0,-1.3333333,0,35.533333)"
     id="g10"><g
       transform="scale(0.1)"
       id="g12"><path
         id="path14"
         style="fill:#ed1a37;fill-opacity:1;fill-rule:nonzero;stroke:none"
         d="M 210.391,45.1758 C 185.375,38.8477 169.574,35.4688 143.102,29.1406 30.6133,1.21094 34.0078,60.4688 39.6055,88.1836 47.293,127.832 66.9531,162.281 103.973,204.641 c 20.664,22.047 39.84,40.953 65.136,48.554 19.391,5.285 17.594,-9.859 15.27,-11.89 -2.481,-0.055 -18.934,-1.719 -19.996,-18.731 -0.766,-12.242 17.078,-16.433 28.062,11.199 8.731,22.024 -6.695,31.743 -15.586,32.575 C 102.949,272.5 -34.1055,126.48 7.80859,37.0117 18.9609,17.4805 46.1797,3.00781 75.5508,6.81641 c 15.5,1.97265 32.7932,5.33199 61.0542,12.12889 16.821,4.0235 103.09,32.2266 131.418,-17.12889 0,0 9.418,17.49999 32.973,17.85159 19.344,1.6797 46.66,-5.586 67.617,-19.668 -6.367,7.51953 -57.652,69.9531 -158.222,45.1758" /><path
         id="path16"
         style="fill:#ed1a37;fill-opacity:1;fill-rule:nonzero;stroke:none"
         d="m 189.305,179.258 c 0.39,3.98 -2.192,16.445 -16.469,8.312 -4.305,-2.562 -14.414,-11.707 -12.09,-22.445 1.504,-6.547 10.402,-12.059 18.613,-12.992 0.762,-0.098 1.145,-0.098 1.446,0.437 1.187,2.141 7.129,12.856 8.5,26.688 m -14.227,-35.356 c -7.543,2.153 -18.668,7.118 -24.137,17.563 -0.136,0.258 -0.355,0.082 -0.468,-0.098 -6.68,-9.164 -19.735,-28.219 -24.813,-43.242 -8.551,-25.2539 7.742,-23.9531 16.887,-16.789 16.687,13.059 31.34,39.461 31.875,40.273 0.801,1.25 1.25,2.098 0.656,2.293 M 292.68,101.336 c -0.039,-2.6641 1.664,-8.8751 11.324,-2.9766 14.633,7.1486 53.883,78.0036 59.207,87.1526 -1.488,6.812 -10.668,4.797 -17.629,-2.168 -6.012,-6.016 -13.457,-14.102 -24.5,-28.934 -4.301,-5.781 -28.211,-39.254 -28.402,-53.074 m -102.235,51.406 c 5.793,-1.39 24.305,11.262 35.078,22.668 8.563,9.074 23.262,20.727 32.512,24.082 6.934,3.203 17.656,4.293 24.668,0.215 4.703,-2.594 7.91,-7.934 8.164,-13.629 0.711,-13.945 -12.219,-31.308 -19.699,-31.945 -5.797,-0.481 -9.441,3.14 -8.883,7.492 1.934,14.738 14.32,18.922 19.059,18.227 1.898,2.89 1.429,7.132 -1.614,8.898 -3.148,1.832 -9.578,0.551 -15.453,-3.797 -20.843,-15.855 -39.175,-42.14 -49.804,-71.133 -1.887,-5.48 -2.91,-13.664 0.429,-19.3278 9.141,-13.5156 30.512,5.2539 30.512,5.2539 14.414,12.3239 28.34,29.3709 39.258,44.4769 28.402,39.324 66.094,73.242 82.75,51.152 0.277,-0.32 0.707,-1.023 0.887,-1.187 0.273,0.339 3.191,5.074 3.191,5.074 h 26.867 c 0,0 -56.894,-94.692 -56.984,-94.848 -1.789,-2.891 -1.93,-5.7812 -0.035,-7.3437 1.543,-0.9961 4.261,0.2149 4.261,0.2149 14.762,6.8558 37.485,38.1058 37.61,38.2418 h 9.25 c -14.496,-20.058 -32.473,-43.7223 -54.774,-58.8161 -26.449,-16.6718 -32.004,4 -28.781,14.0625 -0.047,-0.0234 -19.875,-24.0937 -38.82,-19.6992 -17.899,4.1797 -7.746,31.8088 -7.356,33.3598 -1.605,-1.465 -46.406,-51.1332 -73.453,-27.8402 -22.89,19.7148 9.426,69.0512 9.461,69.1482 -5.156,-1.402 -9.68,-2.476 -13.476,-3.117 -5.79,-14.117 -64.434,-95.8477 -91.0669,-65.7578 -12.3203,15.5547 0.0391,50.8088 22.8319,80.3908 25.738,33.367 58.36,52.515 74.504,42.426 16.426,-11.5 1.649,-41.25 -1.094,-46.942" /><path
         id="path18"
         style="fill:#ed1a37;fill-opacity:1;fill-rule:nonzero;stroke:none"
         d="m 595.766,246.227 c -22.286,-10.922 -44.2,-33.707 -55.215,-57.454 -8.223,-17.734 1.074,-21.332 6.426,-19.91 22.48,6.02 49.921,44.864 48.789,77.364 M 524.379,92.2656 C 509.184,54.6094 483.129,25.3125 452.504,10.8789 438.34,5.44922 418.289,2.16797 403.203,17.2852 385.434,35.0781 387.328,65.1758 394.922,85.4492 441.098,208.656 536.039,258.691 564.77,264.098 c 15.644,2.965 26.562,2.402 34.57,-5.926 0,0 36.387,17.996 74.18,-2.711 18.027,-9.883 25.175,-13.504 38.3,-20.809 l 7.735,-4.535 c -5.332,-4.898 -14.805,-14.523 -20.586,-20.945 -11.66,5.484 -45.078,28.156 -57.93,33.594 -6.309,2.648 -26.426,11.422 -36.719,6.238 4.082,-12.438 -14.492,-77.289 -58.086,-88.566 -12.011,-3.114 -24.824,9.164 -10.117,37.812 18.34,35.758 54.317,55.168 54.336,55.195 -6.406,2.305 -13.73,1.211 -21.797,-2.453 -39.14,-17.695 -79.961,-66.289 -94.511,-86.773 -22.618,-31.899 -43.629,-68.8284 -47.797,-106.4456 -0.91,-13.2617 3.504,-23.5156 12.156,-28.3984 13.766,-8.0664 29.508,2.3633 40.133,10.9766 12.031,10.3125 23.906,25.1367 31.679,40.0703 10.489,20.2031 13.282,40.7111 5.372,43.7261 -7.872,3.008 -17.09,-6.796 -21.114,-12.507 C 483.949,97.7148 481.859,82.207 481.859,82.207 466.527,75.625 453.051,63.6914 446.41,56.4258 c 2.09,16.1836 4.981,26.4453 10.918,38.7305 11.738,24.1757 35.371,41.1167 50.82,42.4567 6.582,0.559 12.989,-0.859 17.54,-8.234 5.761,-9.426 1.953,-29.027 -1.309,-37.1134" /><path
         id="path20"
         style="fill:#ed1a37;fill-opacity:1;fill-rule:nonzero;stroke:none"
         d="m 810.688,235.914 c -19.434,-10.559 -39.649,-17.461 -64.024,-15.062 -6.797,-7.235 -13.359,-14.782 -19.434,-22.575 34.258,-8.277 70.645,10.664 90.84,27.903 22.559,19.32 32.325,40.183 32.325,40.183 0,0 -16.036,-17.605 -39.707,-30.449" /><path
         id="path22"
         style="fill:#ed1a37;fill-opacity:1;fill-rule:nonzero;stroke:none"
         d="m 443.031,199.301 h -25.504 l -14.414,-23.324 h 25.508 l 14.41,23.324" /><path
         id="path24"
         style="fill:#ed1a37;fill-opacity:1;fill-rule:nonzero;stroke:none"
         d="m 745.199,91.1523 c 5.313,8.9457 17.364,27.3827 17.149,29.0747 -0.899,7.39 -9.688,3.218 -13.145,0.836 -27.754,-21.3364 -55.351,-68.2114 -55.84,-82.6841 -0.293,-8.9062 6.68,-6.5625 7.95,-6.1328 11.464,3.4961 33.515,41.2617 43.886,58.9062 M 610.355,116.367 c -0.156,9.711 -6.269,12.379 -15.546,7.363 -5.039,-2.714 -14.903,-10.917 -12.715,-22.968 2.09,-11.68 16.543,-16.7464 17.304,-16.2698 4.375,7.2187 11.133,21.0628 10.957,31.8748 M 594.75,76.7656 c -7.441,2.7735 -17.637,8.7422 -22.48,19.5821 0,0.0195 0,0.0195 0,0.0195 -11.602,-14.5703 -28.184,-41.9922 -27.735,-55.0781 0.117,-3.2227 1.953,-13.6524 14.336,-7.5391 13.106,6.4648 30.371,31.2695 35.879,43.0156 m 189.941,-3.5234 h 9.102 C 786.859,62.5586 753.227,12.5586 726.156,6.81641 710.238,3.4375 707.973,16.582 710.023,27.5391 704.086,21.5039 688.91,8.49609 679.75,6.73828 670.277,4.94141 656.605,8.02734 660.199,33.0078 643.324,12.7344 622.582,-2.59766 610.043,12.2461 c -8.75,10.4883 -4.473,28.2031 4.824,54.2187 0,0 3.164,9.2696 3.535,10.3321 -4.589,-1.4063 -13.73,-1.875 -14.961,-1.9336 C 588.773,50.2539 570.199,23.3789 543.598,9.96094 539.672,8.10547 529.73,4.08203 521.801,7.87109 514.105,12.0703 511.117,20.3906 512.602,33.418 c 2.109,16.4843 9.687,30.9375 17.265,44.375 14.199,21.2304 33.809,46.926 60.098,57.383 5.82,2.574 14.531,4.121 21.601,0.73 5.606,-2.836 7.559,-10.207 7.559,-16.574 0,-2.984 -0.352,-6.031 -0.781,-8.941 -2.266,-10.4496 -6.817,-20.1176 -10.449,-27.2191 1.757,-1.1016 12.011,1.164 14.707,3.1367 36.718,73.3754 78.711,127.1324 128.496,164.4024 0,0 20.234,15.094 33.125,12.379 3.418,-0.738 5.976,-3.238 6.582,-6.61 1.816,-10.656 -3.106,-19.621 -7.5,-27.55 -3.828,-1.235 -9.629,-2.289 -9.629,-2.289 0,0 9.004,14.953 9.394,22.898 0.137,3.254 -1.992,3.789 -2.773,3.758 -7.598,-0.375 -31.406,-23.785 -31.406,-23.785 -36.993,-35.407 -80.469,-109.239 -87.227,-124.727 14.18,6.953 65.313,54.508 89.766,87.223 5.058,0.137 9.316,0.953 9.316,0.953 -3.926,-7.395 -30.781,-40.344 -62.617,-69.477 -14.668,-13.425 -30.82,-25.7574 -44.941,-35.0934 -6.954,-14.3672 -15.743,-36.2617 -16.817,-46.8867 -0.566,-5.332 0.41,-12.7734 6.543,-11.6601 9.356,1.6796 27.578,30.1757 27.578,30.1757 16.856,25.2344 38.223,57.6565 67.481,74.0005 6.738,3.652 16.933,5.375 23.164,1.546 4.199,-2.562 4.922,-4.363 6.582,-7.382 0,0 2.773,4.632 4.043,6.902 h 27.265 c 0,0 -51.777,-86.6876 -57.441,-98.3672 -2.227,-4.6485 0.898,-6.6797 4.453,-5.1954 11.953,4.9414 28.789,27.8125 38.652,41.7188" /><path
         id="path26"
         style="fill:#ed1a37;fill-opacity:1;fill-rule:nonzero;stroke:none"
         d="m 810.063,64.4141 c 0,-1.25 -0.977,-2.168 -2.364,-2.168 h -2.344 v 4.3945 h 2.344 c 1.387,0 2.364,-0.957 2.364,-2.2265 m 2.089,-8.7696 -3.007,5.3321 c 1.543,0.4687 2.695,1.6211 2.695,3.4375 0,2.1289 -1.777,3.7695 -3.945,3.7695 h -4.278 V 55.6445 h 1.738 v 5.1172 h 1.895 l 2.871,-5.1172 z m -4.804,16.0157 c -5.313,0 -9.59,-4.3946 -9.59,-9.7657 0,-5.3711 4.277,-9.7461 9.59,-9.7461 5.312,0 9.629,4.375 9.629,9.7461 0,5.3711 -4.317,9.7657 -9.629,9.7657 m 0,-21.1914 c -6.309,0 -11.426,5.1171 -11.426,11.4257 0,6.3086 5.117,11.4336 11.426,11.4336 6.328,0 11.425,-5.125 11.425,-11.4336 0,-6.3086 -5.097,-11.4257 -11.425,-11.4257" /></g></g></svg>