<?xml version="1.0" encoding="UTF-8" standalone="no"?>
<svg
   xmlns:dc="http://purl.org/dc/elements/1.1/"
   xmlns:cc="http://creativecommons.org/ns#"
   xmlns:rdf="http://www.w3.org/1999/02/22-rdf-syntax-ns#"
   xmlns:svg="http://www.w3.org/2000/svg"
   xmlns="http://www.w3.org/2000/svg"
   viewBox="0 0 113.38667 32.733334"
   height="32.733334"
   width="113.38667"
   xml:space="preserve"
   id="svg2"
   version="1.1"><metadata
     id="metadata8"><rdf:RDF><cc:Work
         rdf:about=""><dc:format>image/svg+xml</dc:format><dc:type
           rdf:resource="http://purl.org/dc/dcmitype/StillImage" /></cc:Work></rdf:RDF></metadata><defs
     id="defs6" /><g
     transform="matrix(1.3333333,0,0,-1.3333333,0,32.733333)"
     id="g10"><g
       transform="scale(0.1)"
       id="g12"><path
         id="path14"
         style="fill:#aab6bb;fill-opacity:1;fill-rule:nonzero;stroke:none"
         d="m 100.742,228.223 c -1.8045,3.324 -4.41,5.125 -6.8982,5.125 -4.4219,0 -9.1875,-5.828 -9.1875,-14.813 0,-4.363 1.1914,-8.211 3,-10.859 0.6835,1.715 1.3203,4.172 1.2578,5.734 -1.5508,2.043 -2.3985,4.84 -2.3985,7.567 l 8.1211,10.695 c 2.5703,-0.02 4.6602,-1.391 6.1053,-3.449 z m -10.2342,-8.207 c 0.3399,-3.754 2.5625,-5.75 4.2266,-5.75 1.7969,0 4.2734,2.343 4.2734,6.711 0,3.351 -1.4961,5.496 -2.9961,6.347 l -5.5039,-7.308 z M 86.8086,188.34 c -0.9609,0.519 -1.9727,1.152 -2.9688,1.859 l 0.6563,-1.554 c 0.5391,-0.43 1.043,-0.864 1.5195,-1.297 -0.3515,0.035 -0.6914,0.066 -1.0351,0.109 l 0.6133,-1.519 5.9609,2.054 -6.3203,12.219 c -1.1602,0.394 -2.2852,0.867 -3.2852,1.402 l 2.5078,-6.281 -0.8437,-1.184 c 1.3203,-1.968 2.414,-3.933 3.1953,-5.808 z m 13.7384,10.68 c -2.1173,-0.418 -4.0587,-0.629 -5.3829,-0.629 -0.9883,0 -2.4961,0.121 -4.2071,0.41 2.7461,-2.957 5.8516,-3.914 9.59,-4.778 v 4.997 z m -5.1993,-9.723 3.2851,1.113 c -1.6601,0.434 -3.2148,0.887 -4.6601,1.516 l 1.375,-2.629 z m -5.6914,13.781 c 2.1328,-0.488 4.2109,-0.742 5.5078,-0.742 1.1914,0 3.2148,0.238 5.3829,0.723 v 4.55 c 1.058,-0.543 2.039,-1.054 2.961,-1.554 l -0.781,12.468 c -0.793,-4.351 -3.6957,-8.21 -7.9926,-8.21 -0.7383,0 -1.4649,0.101 -2.1367,0.339 -0.4532,-2.558 -1.4414,-5.086 -2.0899,-6.222 -0.2226,-0.395 -0.5,-0.867 -0.8515,-1.352 z M 87.707,180.816 c 1.461,0.196 2.9571,0.305 4.4571,0.364 l 0.7617,1.097 7.6212,1.621 v 2.098 0.899 l -13.4337,-4.618 0.5937,-1.461 z m -8.789,-2.132 c 1.5898,0.582 3.1953,1.046 4.832,1.425 l -3.4297,8.266 -1.6562,4.039 -0.4336,1.031 0.6445,0.903 1.1055,1.531 -1.9141,4.801 -2.2969,-1.356 0.1446,-0.957 0.1679,-1.152 0.5938,-3.77 0.1094,-0.757 0.5195,-3.469 1.6133,-10.535 z m -9.4297,-4.598 c 1.8476,1.156 3.7461,2.184 5.6758,3.082 l -1.3828,8.953 c -1.5274,-3.824 -3.0313,-8.152 -4.293,-12.035 z M 121.414,171 c 17.402,-13.652 28.762,-39.598 28.762,-68.371 0,-42.3399 -24.598,-78.547 -56.8869,-78.547 -32.3008,0 -56.875,36.2071 -56.875,78.547 0,28.176 10.8867,53.652 27.6992,67.527 1.8047,6.039 4.6289,14.719 7.6328,21.18 -4.6016,1.996 -8.8477,4.543 -11.7188,7.176 3.7774,-0.34 8.1446,-1.512 12.3477,-3.18 l -0.2109,1.43 c -7.0782,4.172 -14.6602,11.98 -17.6563,18.386 6.0781,-3 12.9766,-9.203 17.1485,-15.156 l -0.1993,1.367 0.3985,0.239 c -1.3047,2.418 -2.4336,5.125 -3.3594,7.882 -0.1094,-0.613 -0.2539,-1.191 -0.3984,-1.75 -3.375,7.004 -4.4102,18.977 -2.2696,26.786 2.1289,-4.414 3.3203,-10.832 3.375,-16.93 2.1875,-3.773 3.9883,-8.375 5.0664,-12.852 0.3477,-0.343 0.7149,-0.699 1.1016,-1.058 l 4.6445,2.738 0.7461,-1.859 1.4961,1.59 c 0.6641,-0.61 1.6563,-1.172 2.832,-1.661 -2.746,3.485 -4.3867,8.547 -4.3867,14.051 0,9.567 5.2149,18.762 13.1407,18.762 7.0972,0 11.1442,-7.16 12.4722,-12.84 l 1.305,-20.93 c 2.391,-1.675 4.496,-3.636 6.84,-6.476 v -3.41 c 2.168,-3.516 5.383,-16.61 6.953,-22.641 z m -16.922,8.68 c 4.199,-1.141 8.184,-2.883 11.942,-5.2 -0.829,3.18 -1.825,6.934 -2.778,10.141 h -3.148 v 10.988 c -1.543,1.801 -5.703,5.446 -6.016,5.336 V 179.68 Z m -11.2029,-4.637 c -27.1446,0 -50.7305,-31.395 -50.7305,-72.414 0,-41.0274 23.5859,-72.3985 50.7305,-72.3985 27.1329,0 50.7269,31.3711 50.7269,72.3985 0,41.019 -23.594,72.414 -50.7269,72.414 z M 123.691,148 l -2.214,-1.246 c -0.227,0.109 -0.446,0.273 -0.676,0.473 -0.235,0.214 -0.434,0.429 -0.606,0.683 -0.879,1.192 -1.199,2.422 -0.98,3.719 0.219,1.277 0.918,2.363 2.113,3.226 1.152,0.848 2.399,1.153 3.727,0.954 1.34,-0.211 2.422,-0.899 3.258,-2.051 0.214,-0.293 0.359,-0.528 0.449,-0.742 0.093,-0.239 0.164,-0.453 0.195,-0.688 l -1.836,-1.789 c 0,0.781 -0.164,1.395 -0.508,1.859 -0.453,0.633 -1.066,0.997 -1.804,1.102 -0.739,0.109 -1.446,-0.09 -2.098,-0.559 -0.648,-0.468 -1.043,-1.082 -1.172,-1.82 -0.125,-0.742 0.043,-1.426 0.492,-2.051 0.172,-0.242 0.414,-0.461 0.723,-0.636 0.301,-0.2 0.609,-0.344 0.937,-0.434 z m 6.661,-8.027 c 0.703,0.34 1.183,0.886 1.445,1.605 0.273,0.727 0.234,1.406 -0.086,2.07 -0.332,0.692 -0.871,1.137 -1.594,1.372 -0.719,0.238 -1.445,0.183 -2.148,-0.165 -0.711,-0.335 -1.168,-0.863 -1.446,-1.582 -0.265,-0.718 -0.23,-1.425 0.09,-2.093 0.328,-0.684 0.852,-1.137 1.59,-1.371 0.723,-0.231 1.434,-0.18 2.149,0.164 z m 1.027,-2.129 c -1.223,-0.598 -2.504,-0.672 -3.828,-0.196 -1.321,0.469 -2.289,1.332 -2.883,2.579 -0.633,1.261 -0.707,2.562 -0.273,3.875 0.433,1.316 1.281,2.296 2.527,2.89 1.242,0.61 2.531,0.664 3.848,0.196 1.312,-0.45 2.277,-1.317 2.886,-2.579 0.61,-1.265 0.711,-2.546 0.274,-3.859 -0.453,-1.336 -1.301,-2.293 -2.551,-2.906 z m 0.184,-8.446 -2.239,-0.16 -1.586,4.614 9.067,3.148 0.984,-2.187 -7.234,-2.469 1.008,-2.946 z m 5.183,-10.894 c -1.351,-0.289 -2.598,-0.055 -3.769,0.723 -1.18,0.773 -1.899,1.836 -2.196,3.207 -0.281,1.375 -0.07,2.636 0.692,3.828 0.746,1.176 1.804,1.894 3.156,2.183 1.34,0.289 2.605,0.051 3.769,-0.722 1.161,-0.778 1.903,-1.84 2.196,-3.219 0.281,-1.363 0.047,-2.649 -0.699,-3.816 -0.747,-1.172 -1.797,-1.895 -3.149,-2.184 z m -0.484,2.312 c 0.75,0.157 1.351,0.555 1.781,1.207 0.434,0.629 0.555,1.317 0.41,2.036 -0.16,0.742 -0.555,1.3 -1.203,1.714 -0.652,0.399 -1.352,0.524 -2.133,0.368 -0.75,-0.164 -1.351,-0.563 -1.785,-1.196 -0.434,-0.632 -0.574,-1.316 -0.418,-2.058 0.164,-0.742 0.563,-1.317 1.207,-1.711 0.637,-0.395 1.356,-0.528 2.141,-0.36 z m -3.403,-13.894 4.946,6.75 -5.125,-0.453 -0.422,2.344 9.851,0.867 -4.781,-6.746 5.137,0.449 0.437,-2.348 -10.043,-0.863 z m -0.101,-16.3282 -0.309,2.4375 2.114,0.8125 0.25,3.664 -1.969,1.0977 0.652,2.2535 9.137,-5.7692 -9.875,-4.496 z m 3.605,3.664 2.442,1.0977 -2.262,1.4492 -0.18,-2.5469 z m -3.105,8.1012 -0.246,2.364 9.687,0.179 0.274,-2.363 -9.715,-0.18 z m -2.223,-19.8473 0.274,2.3633 9.504,-2.0156 -0.282,-2.3672 -9.496,2.0195 z m 6.082,-12.3398 -7.851,6.9844 10.371,1.1914 -0.278,-2.418 -5.414,-0.2852 4.317,-3.3047 -1.145,-2.1679 z m -20.398,-17.1367 1.105,2.1836 2.199,-0.4844 2.262,2.8828 -1.015,2.0195 1.804,1.4805 4.356,-9.8867 -10.711,1.8047 z m 5.039,1.0273 2.637,-0.4336 -1.063,2.4375 -1.574,-2.0039 z m 5.683,11.5664 -1.765,1.3711 1.918,4.5078 8.832,-3.7539 -0.727,-2.2695 -7.043,2.9922 -1.215,-2.8477 z m -3.898,-2.7578 0.961,2.1797 8.484,-4.707 -0.937,-2.1836 -8.508,4.7109 z m -10.32,64.7769 V 112.949 H 98.5898 v 4.762 c 0,2.652 -2.2578,4.797 -5.0312,4.797 -2.7969,0 -5.0547,-2.145 -5.0547,-4.797 v -4.762 h -14.625 v 14.699 h -2.0586 v 4.387 h 43.4567 v -4.387 h -2.054 z m -39.3441,6.672 v 6.785 H 85.9883 V 134.32 H 73.8789 Z m 27.2261,0 v 6.785 h 12.118 v -6.785 h -12.118 z m -7.5464,23.407 c -15.3477,0 -29.5391,-18.493 -32.4258,-44.856 h -5.293 c 2.9493,27.59 17.9297,50.121 37.7188,50.121 19.7854,0 34.7544,-22.531 37.6994,-50.121 h -5.297 c -2.887,26.363 -17.074,44.856 -32.4024,44.856 z M 121.359,85.9453 v 9.2188 l -2.254,-0.2032 v -9.2226 l 2.254,0.207 z m 3.774,-13.1015 -4.93,9.0585 -4.855,-9.0429 2.164,-0.4649 0.929,1.9453 h 3.481 l 0.922,-1.9453 2.289,0.4493 z m -57.5549,-0.125 v 9.1953 l -2.2578,-0.1914 v -9.2188 l 2.2578,0.2149 z m 2.1797,15.6601 c -0.2695,-0.1992 -0.5351,-0.3633 -0.8672,-0.4883 -0.3047,-0.1289 -0.6093,-0.2031 -0.875,-0.2031 -0.7617,0 -1.375,0.2734 -1.8711,0.7813 -0.5,0.5 -0.7265,1.1523 -0.7265,1.9101 0,0.7774 0.2265,1.4102 0.7265,1.9336 0.4961,0.5 1.1094,0.7539 1.8711,0.7539 0.5352,0 1.0938,-0.2109 1.6953,-0.6289 l -0.3437,2.3984 c -0.1992,0.1094 -0.418,0.1797 -0.6367,0.2305 -0.2188,0.0586 -0.4883,0.0742 -0.8321,0.0742 -1.3476,0 -2.4804,-0.4492 -3.3867,-1.3515 -0.8984,-0.8985 -1.3594,-2.0391 -1.3594,-3.4102 0,-1.3906 0.4336,-2.543 1.3204,-3.4258 0.8671,-0.8828 2,-1.3164 3.3906,-1.3164 0.293,0 0.5859,0.0313 0.8672,0.0899 0.2929,0.0742 0.539,0.1445 0.7422,0.2461 l 0.2851,2.4062 z M 75.0195,83.418 72.9375,65.0508 H 114.164 L 112.242,83.418 H 75.0195 Z m -0.4023,4.8515 h 37.8788 c -5.738,5.2852 -12.152,8.2461 -18.9608,8.2461 -6.7852,0 -13.1993,-2.9609 -18.918,-8.2461 z m 57.1598,15.1565 v -0.488 c 0,-31.8989 -16.101,-60.0591 -38.2184,-60.0591 -22.1406,0 -38.2422,28.1602 -38.2422,60.0591 v 0.488 H 131.777 Z M 121.398,76.0195 h -2.402 l 1.199,2.2188 1.203,-2.2188 z m -16.121,0.5938 -0.402,-1.5156 h -3.414 v 6.6757 l 1.648,0.1407 v -5.3008 h 2.168 z m -8.2497,-1.3477 -1.6796,-0.3281 -0.6719,1.4258 h -2.5391 l -0.6875,-1.4258 -1.5937,0.3594 3.5703,6.6054 3.6015,-6.6367 z m -2.7304,2.3242 -0.8828,1.6407 -0.8868,-1.6407 h 1.7696 z M 85.707,77.1563 c 0,-0.6875 -0.2382,-1.2071 -0.7148,-1.625 -0.4609,-0.3985 -1.0938,-0.5938 -1.8711,-0.5938 -0.8867,0 -1.6563,0.2695 -2.293,0.793 l 0.9961,1.2617 c 0.1055,-0.1445 0.2656,-0.2656 0.5,-0.3789 0.2149,-0.1094 0.4688,-0.1602 0.7617,-0.1602 0.2422,0 0.4336,0.0508 0.6133,0.1602 0.1641,0.1133 0.2539,0.2539 0.2539,0.3984 0,0.1953 -0.125,0.3828 -0.4023,0.5235 -0.1953,0.1054 -0.5039,0.2343 -0.9375,0.3632 -0.5899,0.1954 -1.0274,0.4493 -1.2813,0.7344 -0.2343,0.3086 -0.3554,0.7031 -0.3554,1.2461 0,0.5586 0.2265,1.0469 0.7031,1.4414 0.4687,0.3828 1.043,0.582 1.7305,0.582 0.3828,0 0.7382,-0.0742 1.1015,-0.1992 0.3594,-0.1289 0.7071,-0.3281 1.0274,-0.5625 l -0.918,-1.1523 c -0.0898,0.1055 -0.2305,0.2344 -0.4492,0.3398 -0.2188,0.1094 -0.4531,0.1641 -0.6875,0.1641 -0.2188,0 -0.3985,-0.0547 -0.5352,-0.1406 -0.1562,-0.0938 -0.2265,-0.2188 -0.2265,-0.3633 0,-0.1602 0.082,-0.3086 0.2734,-0.4336 0.1602,-0.1211 0.5547,-0.2891 1.1523,-0.4688 0.5274,-0.1445 0.9063,-0.3984 1.1758,-0.7226 0.25,-0.3242 0.3828,-0.7383 0.3828,-1.207 z m 20.738,-10.0469 c -0.394,-0.2188 -0.82,-0.3789 -1.312,-0.4883 -0.496,-0.1289 -0.981,-0.1836 -1.481,-0.1836 -0.996,0 -1.824,0.3281 -2.531,1.0117 -0.68,0.6875 -1.043,1.5 -1.043,2.4727 0,0.957 0.363,1.7695 1.043,2.4531 0.707,0.6875 1.535,1.0313 2.508,1.0313 0.543,0 1.051,-0.0938 1.516,-0.2696 0.398,-0.164 0.781,-0.3828 1.105,-0.6719 l -0.973,-1.1914 c -0.218,0.2032 -0.453,0.3399 -0.742,0.4532 -0.265,0.1093 -0.543,0.164 -0.816,0.164 -0.574,0 -1.043,-0.1992 -1.426,-0.5586 -0.379,-0.3632 -0.563,-0.8515 -0.563,-1.4101 0,-0.5977 0.204,-1.0625 0.602,-1.4219 0.379,-0.3828 0.898,-0.5625 1.555,-0.5625 0.199,0 0.383,0.0352 0.539,0.0703 0.168,0.0391 0.293,0.1094 0.379,0.1797 v 0.957 h -1.739 l 0.477,1.4102 h 2.902 v -3.4453 z m -10.4684,5.9687 -3.0703,-6.6406 -2.8985,6.6602 1.668,0.3086 1.3047,-3.5547 1.3164,3.5547 1.6797,-0.3282 z m -9.8243,-6.3125 -1.6796,-0.3281 -0.6641,1.4258 h -2.5664 l -0.668,-1.4258 -1.582,0.3438 3.5469,6.625 3.6132,-6.6407 z m -2.7226,2.3242 -0.8906,1.629 -0.875,-1.629 h 1.7656 z m -17.3633,83.5622 -2.6211,0.453 1.0664,-2.457 1.5547,2.004 z m 5.0469,1.032 -1.1211,-2.184 -2.2031,0.484 -2.2539,-2.882 1.0273,-2.02 -1.8047,-1.48 -4.3476,9.886 10.7031,-1.804 z m -12.7422,-5.215 -1.3594,-2.543 6.4336,-3.414 -0.9297,-2.199 -6.6211,3.523 -1.1328,-2.168 -1.664,1.531 3.0703,5.778 2.2031,-0.508 z m -0.1484,-9.832 c 0.9062,-0.344 1.4961,-0.942 1.789,-1.77 0.3086,-0.828 0.2539,-1.765 -0.1484,-2.808 -0.461,-1.192 -1.207,-2.098 -2.2344,-2.672 l -1.1914,1.965 c 0.25,0.07 0.5039,0.234 0.7617,0.484 0.2735,0.254 0.4649,0.562 0.6133,0.941 0.1016,0.305 0.1445,0.61 0.0898,0.899 -0.0625,0.289 -0.207,0.472 -0.3984,0.562 -0.2734,0.09 -0.582,0.02 -0.9062,-0.273 -0.25,-0.215 -0.5743,-0.578 -0.9532,-1.082 -0.6015,-0.703 -1.1562,-1.133 -1.6797,-1.317 -0.5195,-0.179 -1.1367,-0.125 -1.8437,0.145 -0.7539,0.293 -1.2813,0.848 -1.5703,1.676 -0.2891,0.832 -0.2539,1.718 0.1055,2.64 0.1835,0.504 0.4726,0.953 0.8359,1.368 0.3555,0.414 0.793,0.773 1.2812,1.085 l 1.086,-1.824 c -0.2031,-0.054 -0.4414,-0.199 -0.711,-0.429 -0.25,-0.219 -0.4531,-0.508 -0.5742,-0.832 -0.1133,-0.29 -0.125,-0.563 -0.0742,-0.801 0.0547,-0.227 0.1836,-0.391 0.375,-0.465 0.2227,-0.09 0.457,-0.055 0.7148,0.109 0.2696,0.18 0.6602,0.61 1.2188,1.332 0.4961,0.618 1.0156,1.016 1.5781,1.192 0.5781,0.164 1.1914,0.129 1.836,-0.125 z m -8.9922,-5.715 8.0937,-6.715 -10.3281,-1.551 0.1914,2.438 5.4219,0.488 -4.4375,3.133 1.0586,2.207 z m 5.9765,-11.387 c 0.2188,-0.578 0.3477,-1.242 0.3985,-1.965 0.0781,-0.722 0.039,-1.429 -0.0664,-2.129 -0.2227,-1.41 -0.9024,-2.527 -2.0235,-3.359 -1.1211,-0.828 -2.3672,-1.152 -3.7265,-0.937 -1.3633,0.214 -2.4532,0.906 -3.2696,2.043 -0.8007,1.132 -1.0976,2.398 -0.8828,3.785 0.1367,0.777 0.3672,1.465 0.711,2.074 0.3242,0.562 0.7226,1.031 1.207,1.426 l 1.4609,-1.657 c -0.3086,-0.253 -0.5742,-0.562 -0.7929,-0.941 -0.2149,-0.359 -0.3594,-0.738 -0.4219,-1.117 -0.1172,-0.817 0.0234,-1.535 0.4805,-2.145 0.4257,-0.617 1.0664,-0.996 1.871,-1.125 0.836,-0.125 1.5508,0.043 2.168,0.528 0.6016,0.464 0.9727,1.172 1.125,2.078 0.0274,0.281 0.0469,0.554 0.0274,0.789 -0.0274,0.254 -0.0899,0.433 -0.1797,0.578 l -1.3516,0.219 -0.3945,-2.457 -1.8985,0.992 0.6485,4.098 4.9101,-0.778 z m -10.0312,-9.199 9.293,-4.871 -9.7735,-3.664 -0.3203,2.418 5.2031,1.586 -5.0078,2.168 0.6055,2.363 z m 8.6055,-9.219 0.6015,-2.383 -2.0078,-1.0621 0.1992,-3.6641 2.0899,-0.8672 -0.3789,-2.3086 -9.7618,4.6172 9.2579,5.6678 z m -3.1407,-4.0936 -2.2773,-1.3906 2.4062,-1.1367 -0.1289,2.5273 z m 2.5977,-10.6093 2.1015,-0.2344 0.9493,-5.4336 -9.4063,-1.6602 -0.9375,5.3047 1.918,0.7891 0.5898,-3.4063 1.6328,0.2891 -0.4375,2.4219 2,0.3594 0.4258,-2.4336 1.8242,0.3242 -0.6601,3.6797 z m 0.8515,-7.8828 2.5079,0.414 c 0.1601,-0.1836 0.3086,-0.414 0.4726,-0.6875 0.1445,-0.2695 0.2539,-0.5547 0.3399,-0.8437 0.4023,-1.4141 0.2773,-2.6875 -0.3594,-3.8282 -0.6367,-1.1367 -1.6719,-1.9101 -3.086,-2.3242 -1.375,-0.4023 -2.6562,-0.25 -3.8476,0.3906 -1.1719,0.6524 -1.9688,1.668 -2.3438,3.0547 -0.1093,0.3203 -0.164,0.6094 -0.164,0.8438 -0.0117,0.2344 0,0.4687 0.0351,0.7031 l 2.3438,1.0313 c -0.2656,-0.7071 -0.3203,-1.336 -0.1563,-1.8907 0.211,-0.7617 0.6524,-1.3007 1.3164,-1.664 0.6719,-0.3399 1.3711,-0.4102 2.168,-0.1836 0.7734,0.2187 1.3477,0.6523 1.7149,1.3008 0.3828,0.6523 0.4609,1.3515 0.25,2.0937 -0.0938,0.2891 -0.2383,0.5742 -0.4532,0.8633 -0.2343,0.2734 -0.4648,0.5078 -0.7383,0.7266 z m 4.8555,-7.1485 1.0078,-2.1445 -9.1133,-3.3203 -1.0351,2.1445 9.1406,3.3203 z m -0.6836,-4.1289 2.1953,0.3984 2.0899,-4.4218 -8.711,-4.0586 -1.207,2.0586 6.9297,3.2265 -1.2969,2.7969 z m 2.8828,-6.1758 2.1485,0.6367 2.5351,-4.2031 -8.2343,-4.9414 -1.4102,1.9336 6.5586,3.9258 -1.5977,2.6484 z m 5.6016,-5.0234 1.5742,-1.7891 -7.8633,-5.7031 -1.5625,1.7891 7.8516,5.7031 z M 145.496,180.242 c -5.719,-3.789 -13.426,-2.203 -17.234,3.516 5.742,3.785 13.445,2.219 17.234,-3.516 z m -13.101,-14.797 c -6.137,3.067 -8.633,10.532 -5.582,16.668 6.136,-3.066 8.648,-10.511 5.582,-16.668 z m 22.386,4.489 c -6.09,-3.172 -13.597,-0.789 -16.765,5.289 6.093,3.16 13.605,0.793 16.765,-5.289 z m -14.57,-13.348 c -5.797,3.68 -7.496,11.367 -3.813,17.156 5.782,-3.695 7.5,-11.367 3.813,-17.156 z m 22.203,-1.387 c -6.625,-1.824 -13.469,2.055 -15.305,8.676 6.61,1.82 13.469,-2.055 15.305,-8.676 z m -17.039,-10.008 c -4.895,4.793 -4.973,12.68 -0.16,17.563 4.89,-4.813 4.98,-12.676 0.16,-17.563 z m 21.863,-5.113 c -6.863,-0.535 -12.836,4.586 -13.383,11.422 6.848,0.523 12.844,-4.582 13.383,-11.422 z m -18.648,-6.601 c -3.891,5.664 -2.434,13.386 3.207,17.3 3.883,-5.668 2.465,-13.422 -3.207,-17.3 z m 21.449,-7.594 c -6.879,0.308 -12.187,6.121 -11.898,12.972 6.859,-0.308 12.183,-6.117 11.898,-12.972 z m -19.316,-4.274 c -3.164,6.094 -0.793,13.582 5.285,16.774 3.164,-6.094 0.816,-13.602 -5.285,-16.774 z m 11.511,-11.257 c -5.597,4 -6.879,11.757 -2.906,17.351 5.582,-3.988 6.899,-11.758 2.906,-17.351 z m -35.82,74.109 c 0,-1.785 -1.441,-3.231 -3.223,-3.231 -1.777,0 -3.222,1.446 -3.222,3.231 0,1.769 1.445,3.207 3.222,3.207 1.782,0 3.223,-1.438 3.223,-3.207 z M 98.3281,16.5742 100.586,12.9688 98.3984,11.3789 108,6.3125 104.047,0 93.4258,7.73828 82.8047,0 l -3.9492,6.3125 9.5937,5.0664 -2.1679,1.5899 2.2539,3.6054 4.8906,-2.582 4.9023,2.582 z M 37.1523,47.6016 c -4.3789,7.7968 -7.3281,19.7929 -7.9804,30.9062 -0.6836,-2.164 -1.4571,-4.2031 -2.3086,-6.0625 -3.2305,12.5938 -1.211,32.8747 4.4765,45.3397 2.0196,-7.922 1.9922,-18.8592 0.2735,-28.9881 C 34.25,82.8047 36.1836,75.2813 37.1523,67.7422 42.6797,61.1719 47.7344,51.3047 50.793,41.6523 61.2422,35.0859 72.3398,23.6719 77.5938,13.5469 69.5313,17.0625 60.1563,24.6563 52.9922,32.9805 c 0.3242,-1.8477 0.5742,-3.6133 0.707,-5.3086 -6.5429,6.8906 -12.6094,18.7422 -15.8203,29.9648 0.0352,-3.5742 -0.207,-6.9648 -0.7266,-10.0351 z M 79.7148,8.83984 C 62.3047,8.35156 37.5508,16.0742 24.3867,26.1016 41.8086,26.5703 66.5625,18.8516 79.7148,8.83984 Z M 56.1055,22.2578 C 39.4961,27.4727 18.6133,42.8242 9.44531,56.5938 26.0547,51.3516 46.957,36.0234 56.1055,22.2578 Z M 36.9766,44.5234 C 22.1211,53.5781 5.58594,73.5273 0,89.1016 14.8633,80.0078 31.4336,60.0742 36.9766,44.5234 Z m -11.5,24.0782 C 13.918,81.6094 3.93359,105.531 3.16016,122.043 14.7109,108.996 24.7148,85.0977 25.4766,68.6016 Z M 152.992,105.879 c 7.406,-5.738 10.758,-17.5392 7.563,-26.3399 -7.371,5.7734 -10.77,17.5507 -7.563,26.3399 z M 137.598,14.7148 C 131.09,7.97266 119.016,5.84375 110.582,9.95313 c 6.52,6.72657 18.598,8.87887 27.016,4.76167 z m -10.996,19.0196 c -0.641,-9.3438 -8.543,-18.7266 -17.625,-20.9805 0.652,9.3242 8.535,18.7227 17.625,20.9805 z m 28.867,0.4297 c -3.957,-8.4766 -14.684,-14.4297 -23.973,-13.2735 3.949,8.4766 14.676,14.4336 23.973,13.2735 z m -16.59,14.4179 c 2.449,-9.039 -1.973,-20.4804 -9.824,-25.5859 -2.422,9.043 1.961,20.4922 9.824,25.5859 z m 28.199,7.0157 c -1.937,-9.168 -11.051,-17.375 -20.371,-18.3477 1.957,9.1641 11.055,17.3711 20.371,18.3477 z m -19.414,10.3007 c 4.422,-8.2617 2.688,-20.3828 -3.809,-27.1328 -4.398,8.2657 -2.707,20.4024 3.809,27.1328 z m 25.84,13.6055 c 0.18,-9.3672 -6.859,-19.3945 -15.707,-22.4492 -0.164,9.3633 6.844,19.4141 15.707,22.4492 z m -21.219,5.6758 c 6.164,-7.0508 7.207,-19.2617 2.391,-27.2891 -6.16,7.0742 -7.223,19.2852 -2.391,27.2891 z m 22.633,19.1643 c 1.965,-9.1448 -3.023,-20.3518 -11.141,-25.0237 -1.953,9.168 3.028,20.3672 11.141,25.0237 z M 63.5664,219.461 c -4.7656,6.723 -8.0273,18.383 -7.3086,26.016 4.7422,-6.774 8.0274,-18.403 7.3086,-26.016 z m 3.25,-12.09 c -6.4258,5.359 -12.7812,15.844 -14.1719,23.399 6.4297,-5.379 12.7852,-15.84 14.1719,-23.399 z M 41.043,180.242 c 3.789,5.735 11.5117,7.301 17.25,3.516 -3.8047,-5.719 -11.5196,-7.305 -17.25,-3.516 z m 13.1015,-14.797 c -3.0742,6.157 -0.5429,13.602 5.5938,16.668 3.0547,-6.136 0.5625,-13.601 -5.5938,-16.668 z m -22.3867,4.489 c 3.1719,6.082 10.6914,8.449 16.793,5.289 -3.1836,-6.078 -10.6914,-8.461 -16.793,-5.289 z m 14.5899,-13.348 c -3.7032,5.789 -1.9727,13.461 3.8046,17.156 3.6836,-5.789 1.9961,-13.476 -3.8046,-17.156 z m -22.2149,-1.387 c 1.8242,6.621 8.6875,10.496 15.3125,8.676 -1.8398,-6.621 -8.6953,-10.5 -15.3125,-8.676 z m 17.0313,-10.008 c -4.8047,4.887 -4.7305,12.75 0.1562,17.563 4.8086,-4.883 4.7539,-12.77 -0.1562,-17.563 z m -21.8438,-5.113 c 0.5352,6.84 6.5195,11.945 13.3789,11.422 -0.5586,-6.836 -6.539,-11.957 -13.3789,-11.422 z m 18.6289,-6.601 c -5.6719,3.878 -7.0781,11.632 -3.1953,17.3 5.6484,-3.914 7.0938,-11.636 3.1953,-17.3 z m -21.4336,-7.594 c -0.3047,6.855 5.0196,12.664 11.8828,12.972 0.2852,-6.851 -5.0273,-12.664 -11.8828,-12.972 z m 19.3008,-4.274 c -6.082,3.172 -8.4492,10.68 -5.2851,16.774 6.0937,-3.192 8.4648,-10.68 5.2851,-16.774 z M 24.3242,110.352 c -3.9961,5.593 -2.6953,13.363 2.9024,17.351 3.9687,-5.594 2.6875,-13.351 -2.9024,-17.351 z m 35.8203,74.109 c 0,1.769 1.4414,3.207 3.2071,3.207 1.7812,0 3.2343,-1.438 3.2343,-3.207 0,-1.785 -1.4531,-3.231 -3.2343,-3.231 -1.7657,0 -3.2071,1.446 -3.2071,3.231 v 0" /><path
         id="path16"
         style="fill:#145899;fill-opacity:1;fill-rule:nonzero;stroke:none"
         d="m 287.367,83.043 h -10.883 l -4.91,13.832 h -19.07 l -4.91,-13.832 h -10.883 l 20.371,57.289 h 9.906 z m -19.39,23.98 -5.977,16.774 -5.895,-16.774 z" /><path
         id="path18"
         style="fill:#145899;fill-opacity:1;fill-rule:nonzero;stroke:none"
         d="m 292.852,63.2422 h -3.684 l -0.898,8.3437 c 1.089,0 1.964,0.0391 2.621,0.1211 0.652,0.0821 1.14,0.3282 1.468,0.7383 0.329,0.4063 0.547,1.0508 0.657,1.9219 0.109,0.875 0.164,2.1289 0.164,3.7656 v 45.8282 h 10.148 V 73.9609 c 0,-3.164 -0.879,-5.7421 -2.621,-7.7382 -1.746,-1.9844 -4.363,-2.9805 -7.855,-2.9805 z M 303.328,130.18 H 293.18 v 10.152 h 10.148 V 130.18" /><path
         id="path20"
         style="fill:#145899;fill-opacity:1;fill-rule:nonzero;stroke:none"
         d="m 349.32,83.043 h -9.496 l -0.16,2.4531 c -2.836,-2.1797 -5.867,-3.2695 -9.09,-3.2695 -11.558,0 -17.344,6.5703 -17.344,19.7224 v 22.012 h 10.149 v -22.012 c 0,-3.8201 0.637,-6.6443 1.922,-8.4724 1.281,-1.8282 3.34,-2.7422 6.176,-2.7422 3.164,0 5.73,1.1484 7.695,3.4375 V 123.961 H 349.32 V 83.043" /><path
         id="path22"
         style="fill:#145899;fill-opacity:1;fill-rule:nonzero;stroke:none"
         d="m 395.723,83.043 h -10.149 v 22.016 c 0,3.816 -0.644,6.64 -1.926,8.468 -1.281,1.828 -3.343,2.743 -6.175,2.743 -3.118,0 -5.676,-1.172 -7.696,-3.524 V 83.043 h -10.148 v 40.918 h 9.496 l 0.16,-2.453 c 2.895,2.07 5.895,3.109 9.004,3.109 11.621,0 17.434,-6.523 17.434,-19.558 V 83.043" /><path
         id="path24"
         style="fill:#145899;fill-opacity:1;fill-rule:nonzero;stroke:none"
         d="m 426.328,90.5703 -0.902,-8.3437 h -7.285 c -1.797,0 -3.383,0.2851 -4.746,0.8593 -1.364,0.5704 -2.512,1.3321 -3.434,2.2891 -0.93,0.957 -1.629,2.0859 -2.094,3.3984 -0.461,1.3125 -0.691,2.6993 -0.691,4.1758 v 22.6638 h -5.809 l 0.899,8.348 h 4.91 v 9 l 10.148,1.07 v -10.07 h 9.004 v -8.348 h -9.004 V 97.1172 c 0,-1.5781 0.055,-2.8086 0.164,-3.6797 0.102,-0.875 0.371,-1.5312 0.778,-1.9648 0.406,-0.4375 1.015,-0.6914 1.839,-0.7774 0.817,-0.082 1.961,-0.125 3.438,-0.125 h 2.785" /><path
         id="path26"
         style="fill:#145899;fill-opacity:1;fill-rule:nonzero;stroke:none"
         d="m 469.125,90.5703 -0.895,-8.3437 h -3.687 c -4.418,0 -7.477,1.5781 -9.164,4.7461 -2.84,-3.168 -7.012,-4.7461 -12.52,-4.7461 -1.695,0 -3.261,0.2851 -4.707,0.8593 -1.449,0.5704 -2.699,1.3868 -3.769,2.4532 -1.063,1.0664 -1.891,2.3476 -2.496,3.8437 -0.598,1.5039 -0.895,3.207 -0.895,5.1172 0,2.7813 0.817,5.0977 2.457,6.957 1.633,1.848 3.621,3.344 5.969,4.461 2.344,1.117 4.84,1.922 7.488,2.414 2.645,0.488 5.004,0.762 7.078,0.816 -0.109,2.461 -0.703,4.184 -1.796,5.196 -1.094,1.011 -2.946,1.515 -5.567,1.515 -3.219,0 -6.961,-1.039 -11.211,-3.113 l -0.906,8.27 c 5.074,2.402 10.047,3.601 14.902,3.601 9.871,0 14.809,-5.484 14.809,-16.445 V 97.1172 c 0,-1.4727 0.043,-2.6484 0.129,-3.5156 0.082,-0.875 0.238,-1.543 0.488,-2.0078 0.246,-0.4649 0.609,-0.75 1.106,-0.8594 0.488,-0.1094 1.109,-0.1641 1.875,-0.1641 z m -15.059,2.3789 v 9.3238 c -1.586,-0.105 -3.121,-0.324 -4.625,-0.652 -1.5,-0.332 -2.82,-0.808 -3.964,-1.43 -1.145,-0.6324 -2.075,-1.3824 -2.782,-2.2535 -0.711,-0.875 -1.066,-1.8828 -1.066,-3.0273 0,-3.2735 1.824,-4.9102 5.484,-4.9102 2.563,0 4.879,0.9844 6.953,2.9492" /><path
         id="path28"
         style="fill:#145899;fill-opacity:1;fill-rule:nonzero;stroke:none"
         d="m 537.375,83.043 h -10.148 v 22.016 c 0,3.925 -0.575,6.777 -1.711,8.55 -1.153,1.774 -3.114,2.661 -5.899,2.661 -3.054,0 -5.172,-0.711 -6.344,-2.125 -1.175,-1.426 -1.757,-3.36 -1.757,-5.813 V 83.043 h -10.067 v 22.016 c 0,2.129 -0.152,3.914 -0.449,5.359 -0.301,1.441 -0.777,2.605 -1.43,3.48 -0.66,0.868 -1.504,1.485 -2.539,1.84 -1.035,0.352 -2.289,0.532 -3.769,0.532 -3.102,0 -5.617,-1.122 -7.528,-3.356 V 83.043 h -10.148 v 40.918 h 8.352 l 0.574,-3.191 c 3.164,2.562 6.652,3.847 10.472,3.847 2.508,0 4.883,-0.535 7.121,-1.594 2.239,-1.07 4.036,-2.609 5.403,-4.625 0.379,0.762 0.996,1.516 1.84,2.247 0.847,0.738 1.855,1.406 3.027,2.007 1.172,0.602 2.496,1.078 3.969,1.43 1.472,0.356 3.051,0.535 4.746,0.535 2.672,0 5.031,-0.465 7.082,-1.394 2.047,-0.922 3.742,-2.235 5.109,-3.926 1.364,-1.692 2.391,-3.75 3.074,-6.18 0.676,-2.429 1.02,-5.117 1.02,-8.058 V 83.043" /><path
         id="path30"
         style="fill:#145899;fill-opacity:1;fill-rule:nonzero;stroke:none"
         d="M 580.176,101.289 H 553.66 c 0.551,-3.5429 1.985,-6.2148 4.317,-8.0156 2.324,-1.8007 4.964,-2.7031 7.918,-2.7031 0.929,0 1.945,0.082 3.039,0.25 1.093,0.1641 2.207,0.3945 3.32,0.6875 1.125,0.3047 2.238,0.6602 3.332,1.0703 1.09,0.4102 2.074,0.8594 2.949,1.3477 l 0.496,-8.5899 c -3.984,-2.0781 -8.539,-3.1093 -13.668,-3.1093 -3.597,0 -6.777,0.5429 -9.531,1.6367 -2.758,1.0859 -5.074,2.5742 -6.961,4.457 -1.879,1.8867 -3.297,4.1211 -4.254,6.711 -0.953,2.5937 -1.429,5.3867 -1.429,8.3907 0,2.945 0.445,5.699 1.347,8.266 0.903,2.562 2.195,4.812 3.891,6.75 1.691,1.933 3.75,3.449 6.179,4.542 2.422,1.09 5.168,1.637 8.219,1.637 2.567,0 4.957,-0.422 7.164,-1.265 2.207,-0.848 4.121,-2.051 5.727,-3.606 1.609,-1.555 2.867,-3.426 3.765,-5.601 0.899,-2.188 1.352,-4.614 1.352,-7.286 0,-1.527 -0.219,-3.382 -0.656,-5.57 z m -26.27,6.883 h 16.614 c 0,2.125 -0.606,4.008 -1.809,5.641 -1.203,1.64 -3.07,2.457 -5.59,2.457 -2.523,0 -4.555,-0.739 -6.094,-2.211 -1.535,-1.473 -2.574,-3.434 -3.121,-5.887" /><path
         id="path32"
         style="fill:#145899;fill-opacity:1;fill-rule:nonzero;stroke:none"
         d="m 624.699,83.043 h -10.148 v 22.016 c 0,3.816 -0.645,6.64 -1.922,8.468 -1.285,1.828 -3.344,2.743 -6.184,2.743 -3.113,0 -5.672,-1.172 -7.695,-3.524 V 83.043 h -10.145 v 40.918 h 9.497 l 0.16,-2.453 c 2.89,2.07 5.894,3.109 9,3.109 11.621,0 17.437,-6.523 17.437,-19.558 V 83.043" /><path
         id="path34"
         style="fill:#145899;fill-opacity:1;fill-rule:nonzero;stroke:none"
         d="m 655.711,90.5703 -0.898,-8.3437 h -7.286 c -1.797,0 -3.382,0.2851 -4.746,0.8593 -1.363,0.5704 -2.508,1.3321 -3.437,2.2891 -0.926,0.957 -1.621,2.0859 -2.086,3.3984 -0.465,1.3125 -0.695,2.6993 -0.695,4.1758 v 22.6638 h -5.809 l 0.898,8.348 h 4.911 v 9 l 10.148,1.07 v -10.07 h 9 v -8.348 h -9 V 97.1172 c 0,-1.5781 0.047,-2.8086 0.164,-3.6797 0.109,-0.875 0.371,-1.5312 0.773,-1.9648 0.411,-0.4375 1.028,-0.6914 1.844,-0.7774 0.821,-0.082 1.961,-0.125 3.438,-0.125 h 2.781" /><path
         id="path36"
         style="fill:#145899;fill-opacity:1;fill-rule:nonzero;stroke:none"
         d="m 719.707,83.043 h -9.574 l -0.164,2.2929 c -3.055,-2.0781 -6.383,-3.1093 -9.985,-3.1093 -3.218,0 -6.07,0.5429 -8.55,1.6367 -2.481,1.0859 -4.579,2.6015 -6.262,4.539 -1.695,1.9336 -2.984,4.1875 -3.891,6.7579 -0.89,2.5586 -1.347,5.3168 -1.347,8.2618 0,2.945 0.461,5.715 1.39,8.305 0.926,2.593 2.254,4.839 3.969,6.75 1.723,1.914 3.816,3.41 6.301,4.503 2.48,1.09 5.281,1.637 8.39,1.637 3.657,0 6.852,-0.902 9.575,-2.703 v 22.508 h 10.148 z M 700.68,116.27 c -3.266,0 -5.789,-1.161 -7.582,-3.477 -1.793,-2.32 -2.688,-5.441 -2.688,-9.371 0,-3.9298 0.895,-7.0548 2.688,-9.3751 1.793,-2.3125 4.316,-3.4766 7.582,-3.4766 3.148,0 5.504,1.1485 7.047,3.4375 1.546,2.293 2.32,5.4258 2.32,9.4142 0,3.98 -0.774,7.117 -2.32,9.41 -1.543,2.293 -3.899,3.438 -7.047,3.438" /><path
         id="path38"
         style="fill:#145899;fill-opacity:1;fill-rule:nonzero;stroke:none"
         d="m 738.125,134.93 -7.531,-9.004 -2.051,1.144 2.699,7.039 -2.699,0.821 v 9.492 h 9.582 v -9.492" /><path
         id="path40"
         style="fill:#145899;fill-opacity:1;fill-rule:nonzero;stroke:none"
         d="m 784.934,83.043 h -37.481 v 57.289 h 36.66 V 130.18 h -25.937 v -12.192 h 20.125 V 107.84 H 758.176 V 93.1875 h 26.758 V 83.043" /><path
         id="path42"
         style="fill:#145899;fill-opacity:1;fill-rule:nonzero;stroke:none"
         d="m 808.254,90.5703 -0.902,-8.3437 h -3.68 c -3.492,0 -6.106,0.9961 -7.859,2.9804 -1.747,1.9961 -2.618,4.5703 -2.618,7.7422 v 51.4728 h 10.153 V 97.1172 c 0,-1.5781 0.039,-2.8086 0.117,-3.6797 0.078,-0.875 0.293,-1.5156 0.617,-1.9297 0.324,-0.4023 0.816,-0.664 1.473,-0.7734 0.656,-0.1094 1.554,-0.1641 2.699,-0.1641" /><path
         id="path44"
         style="fill:#145899;fill-opacity:1;fill-rule:nonzero;stroke:none"
         d="m 850.398,83.043 h -12.109 l -7.453,11.539 -6.867,-11.539 h -12.114 l 13.172,20.457 -13.172,20.461 h 12.114 l 7.445,-11.539 6.875,11.539 h 12.109 L 837.141,103.5 850.398,83.043" /></g></g></svg>