<?xml version="1.0" encoding="UTF-8" standalone="no"?>
<svg
   xmlns:dc="http://purl.org/dc/elements/1.1/"
   xmlns:cc="http://creativecommons.org/ns#"
   xmlns:rdf="http://www.w3.org/1999/02/22-rdf-syntax-ns#"
   xmlns:svg="http://www.w3.org/2000/svg"
   xmlns="http://www.w3.org/2000/svg"
   viewBox="0 0 246.14667 212.77333"
   height="212.77333"
   width="246.14667"
   xml:space="preserve"
   id="svg2"
   version="1.1"><metadata
     id="metadata8"><rdf:RDF><cc:Work
         rdf:about=""><dc:format>image/svg+xml</dc:format><dc:type
           rdf:resource="http://purl.org/dc/dcmitype/StillImage" /></cc:Work></rdf:RDF></metadata><defs
     id="defs6" /><g
     transform="matrix(1.3333333,0,0,-1.3333333,0,212.77333)"
     id="g10"><g
       transform="scale(0.1)"
       id="g12"><path
         id="path14"
         style="fill:#1d1b19;fill-opacity:1;fill-rule:evenodd;stroke:none"
         d="m 344.172,75.4297 -0.461,-16.4102 h 37.09 L 380.352,0.789063 227.031,1.17188 V 21.8906 l -0.449,111.7814 h 153.77 V 75.4297 h -36.18 v 0" /><path
         id="path16"
         style="fill:#1d1b19;fill-opacity:1;fill-rule:evenodd;stroke:none"
         d="M 1040.65,30.4883 V 0.789063 L 971.914,1.94922 971.453,133.672 h 134.327 l 4.07,-1.953 5.42,-3.129 4.98,-3.899 4.53,-4.703 3.61,-5.078 2.71,-4.691 V 53.9297 l -7.23,-6.25 44.77,-36.3399 L 1164.57,0 1075.93,1.17188 1040.65,30.4883 v 0" /><path
         id="path18"
         style="fill:#1d1b19;fill-opacity:1;fill-rule:evenodd;stroke:none"
         d="m 1394.77,73.8789 0.45,-40.2695 -0.45,-1.5586 -1.35,-6.2617 -2.26,-5.8477 -3.62,-5.0898 -4.07,-4.6797 -3.17,-2.75002 -3.62,-2.33204 -4.06,-1.96875 -4.08,-1.17187 -2.71,-1.160157 h -108.99 l -6.34,0.382817 -5.88,1.5664 -5.87,2.35156 -4.98,3.5 -0.9,0.80079 -0.46,0.78127 -4.97,5.8476 -1.81,3.5196 -1.36,3.5312 -0.9,3.5117 0.9,80.52 2.26,4.296 3.62,6.25 4.98,5.473 5.43,4.688 6.32,3.523 4.08,2.34 h 116.68 l 4.98,-3.512 6.33,-4.308 5.43,-5.473 4.52,-6.25 3.16,-7.027 0.45,-1.18 1.82,-7.0314 0.44,-7.4297 v -17.582 0" /><path
         id="path20"
         style="fill:#1d1b19;fill-opacity:1;fill-rule:evenodd;stroke:none"
         d="m 1485.68,133.672 h 42.05 l 25.79,-25.801 27.13,25.801 h 76.89 l 2.71,-6.652 -74.62,-73.0903 -0.45,-53.531262 -68.3,0.390625 V 53.9297 l -75.52,72.7113 2.71,7.031 h 41.61 v 0" /><path
         id="path22"
         style="fill:#1d1b19;fill-opacity:1;fill-rule:evenodd;stroke:none"
         d="m 850.254,75.4297 -0.457,-16.4102 h 36.637 V 0.789063 L 732.656,1.17188 732.207,21.8906 V 133.672 h 153.77 l 0.457,-58.2423 h -36.18 v 0" /><path
         id="path24"
         style="fill:#ffffff;fill-opacity:1;fill-rule:evenodd;stroke:none"
         d="m 247.832,21.8906 -0.449,91.0704 h 112.16 V 96.5391 H 274.969 L 274.52,77 h 48.839 L 322.91,60.5898 H 274.52 V 38.3086 h 85.023 V 21.8906 H 247.832 v 0" /><path
         id="path26"
         style="fill:#ffffff;fill-opacity:1;fill-rule:evenodd;stroke:none"
         d="m 992.254,112.961 h 108.996 l 2.72,-1.563 2.26,-1.957 2.27,-2.339 1.8,-2.352 V 63.3203 l -6.33,-4.6914 -7.23,-2.7383 -7.7,-1.5508 -7.68,0.379 41.61,-33.6094 -39.35,0.7812 -40.25,32.8282 h -23.52 V 21.8906 l -27.135,0.3907 -0.461,90.6797 v 0" /><path
         id="path28"
         style="fill:#100f0d;fill-opacity:1;fill-rule:evenodd;stroke:none"
         d="m 1019.85,96.1484 60.6,0.3907 4.52,-6.2578 0.46,-2.3321 0.45,-2.7383 v -5.4726 l -2.26,-3.9063 -2.72,-3.9101 -61.05,-0.3906 v 24.6171 0" /><path
         id="path30"
         style="fill:#ffffff;fill-opacity:1;fill-rule:evenodd;stroke:none"
         d="m 1255.93,112.961 h 105.83 l 3.16,-2.742 3.17,-3.117 2.71,-3.532 1.82,-3.8981 0.9,-4.3008 0.45,-4.3008 -27.58,-5.8594 v 10.9375 h -78.71 l 0.46,-57.8398 h 78.7 v 19.1523 l -42.51,0.3907 v 16.4101 h 69.64 l 0.45,-39.4804 -0.9,-2.7305 -0.9,-2.3399 -1.36,-2.3515 -1.82,-1.9492 -3.16,-2.3399 -3.61,-1.582 h -109 l -4.53,1.582 -1.81,1.5586 -1.8,2.3399 -1.36,3.1328 0.91,71.9104 1.8,3.519 5.43,5.469 3.62,1.961 v 0" /><path
         id="path32"
         style="fill:#ffffff;fill-opacity:1;fill-rule:evenodd;stroke:none"
         d="m 1485.68,112.961 h 33.47 l 34.37,-34.0001 35.28,34.0001 h 27.14 l -51.12,-50.0313 -0.44,-41.8203 -26.7,0.3789 v 41.4414 l -52,50.0313 v 0" /><path
         id="path34"
         style="fill:#ffffff;fill-opacity:1;fill-rule:evenodd;stroke:none"
         d="M 753.016,21.8906 V 112.961 H 865.625 V 96.5391 h -85.02 L 780.145,77 h 49.296 l -0.449,-16.4102 h -48.847 l 0.46,-22.2812 h 85.02 V 21.8906 H 753.016 v 0" /><path
         id="path36"
         style="fill:#100f0d;fill-opacity:1;fill-rule:evenodd;stroke:none"
         d="m 1064.17,374.039 -4.52,-1.949 -4.98,-1.168 23.06,-17.981 2.72,-2.75 2.71,-3.511 2.27,-5.86 0.9,-5.871 0.46,-6.25 -0.91,-5.859 -0.91,-3.121 -9.95,-22.289 -10.39,-21.489 -11.31,-21.5 -12.22,-20.722 -0.89,-0.77 -11.31,-15.64 -11.76,-14.848 -1.36,-1.563 -10.41,-9 -10.85,-8.589 -11.309,-7.43 -12.207,-6.641 -4.07,-1.558 -12.207,-2.348 -12.219,-0.781 -12.664,1.168 -12.207,2.351 -4.524,1.95 -4.07,2.73 -3.164,3.91 -2.266,4.301 -0.898,2.738 -19.453,17.199 -19.446,16.813 -3.621,3.508 -2.257,4.301 -1.356,5.082 v 5.078 l 0.906,5.859 2.258,5.871 3.621,5.078 4.074,4.301 4.969,3.52 5.43,2.73 6.332,1.57 h 5.875 l 5.879,-1.168 2.715,-1.171 2.714,-1.579 18.086,-12.902 18.547,-12.5 4.071,-0.391 3.613,0.782 9.055,9.39 7.226,10.942 6.785,15.238 6.34,15.238 5.418,16.032 4.524,16.019 -19.891,0.391 -19.457,-0.391 -0.899,-1.168 -2.265,-2.742 -2.711,-2.348 -3.168,-1.949 -3.613,-1.172 -4.52,-1.172 -4.98,-0.386 h -4.969 l -4.524,0.777 -3.625,1.172 -3.613,1.558 -2.715,2.352 -2.715,2.738 -20.808,29.313 -19.895,30.097 -2.265,3.903 -0.899,4.308 v 4.289 l 0.45,4.301 2.714,6.641 3.614,5.859 3.175,3.141 3.164,2.73 8.583,4.688 8.148,5.472 3.621,1.957 3.613,1.172 8.594,1.559 9.043,-0.391 h 8.594 l 26.687,5.473 26.684,6.641 11.754,4.296 5.879,1.961 5.879,0.782 h 5.876 l 5.88,-0.782 3.18,-0.789 3.16,-1.55 21.25,-11.34 22.17,-10.149 3.61,-1.972 3.17,-2.727 2.71,-3.133 1.82,-3.508 0.9,-1.961 3.61,6.641 4.98,6.258 4.97,5.473 6.34,4.687 4.97,3.133 4.97,2.726 4.07,1.172 4.98,0.782 4.97,-0.383 4.53,-0.789 4.98,-1.95 159.64,1.168 h 0.9 l 6.79,1.954 6.79,0.789 4.07,-0.391 4.52,-0.781 4.07,-1.957 4.07,-2.34 3.62,-2.742 3.16,-3.899 5.43,-10.562 4.52,-10.938 2.72,-11.34 1.35,-11.73 -0.45,-4.289 -1.35,-4.301 -2.27,-4.312 -2.71,-3.118 -2.72,-2.339 -3.16,-1.961 -3.62,-1.95 -3.62,-1.171 -3.62,-0.782 -3.61,-0.386 -7.69,0.769 -4.07,1.57 -4.07,2.34 -3.17,3.141 -5.43,7.808 -3.16,3.129 -3.62,2.731 -4.53,1.558 -38.43,-0.386 -0.45,-76.211 0.45,-76.219 -0.45,-4.301 -0.91,-3.902 -2.27,-3.91 -2.7,-3.117 -4.07,-3.141 -4.08,-2.34 -4.97,-1.57 -4.53,-0.391 h -4.97 l -4.97,1.18 -4.53,1.961 -4.06,2.719 -17.65,12.121 -17.18,13.289 -3.62,3.91 -2.71,5.082 -1.36,5.867 -0.45,6.25 0.45,6.25 1.81,5.871 1.81,3.512 2.26,3.519 2.71,2.739 0.91,25.402 0.45,25.008 v 25.398 l -0.9,25.41 h -28.94 l -5.43,-3.898 -9.05,-9.379 -4.07,-5.09 -3.16,-3.511 -3.63,-2.348 -4.52,-1.953 -4.52,-0.399 h -6.33 l -5.88,1.168 -5.89,2.75 -5.42,3.121 -3.17,2.743 -2.26,3.519 -1.35,3.52 -1.36,3.898 v 0" /><path
         id="path38"
         style="fill:#ffffff;fill-opacity:1;fill-rule:evenodd;stroke:none"
         d="m 1118.44,413.52 168.7,0.781 4.97,1.558 3.62,1.172 4.07,0.399 2.71,-0.789 2.26,-1.95 4.08,-7.82 3.61,-8.601 1.82,-8.59 1.35,-9 -2.26,-1.559 -2.27,-1.172 -2.7,-0.39 -2.27,0.39 -2.71,4.301 -2.72,3.91 -3.61,3.52 -3.62,3.121 -4.08,2.738 -4.07,2.34 -4.52,1.562 -4.97,1.168 -61.06,-0.379 -0.9,-86.769 0.45,-86.762 -2.26,-1.179 -2.27,-0.391 -2.71,0.391 -1.81,1.562 -17.63,11.34 -16.28,12.898 -0.91,2.731 v 2.347 l 0.91,5.473 7.68,8.211 1.36,32.438 0.45,32.832 -0.45,32.437 -1.81,32.441 -55.17,0.782 -8.15,-5.864 -7.23,-6.636 -7.24,-7.051 -5.88,-7.422 h -2.71 l -2.71,0.391 -4.53,2.351 0.46,5.469 0.9,5.082 1.35,4.68 2.27,5.09 2.26,4.308 3.17,4.289 3.61,3.512 4.08,3.519 6.78,3.52 2.26,0.391 2.27,-0.391 2.25,-1.168 1.81,-1.562 v 0" /><path
         id="path40"
         style="fill:#ffffff;fill-opacity:1;fill-rule:evenodd;stroke:none"
         d="m 949.746,391.238 -12.656,0.391 -12.219,-0.391 v -3.906 l 0.449,-4.293 16.739,-25.418 39.347,-0.383 h 39.804 l 8.13,3.903 h 4.98 l 5.43,-5.082 24.88,-19.149 0.9,-2.34 0.45,-2.34 v -2.359 l -0.45,-2.34 -9.05,-21.5 -10.4,-20.722 -10.86,-20.7 -11.75,-19.937 -10.85,-14.461 -11.31,-14.461 -9.056,-8.199 -9.492,-7.039 -10.399,-6.653 -10.41,-5.859 -9.492,-1.949 -9.953,-0.403 -9.949,0.403 -9.493,1.949 -1.816,7.031 -21.699,19.551 -22.617,19.137 0.449,1.961 0.91,1.961 1.355,1.949 1.356,1.558 3.613,2.352 4.524,0.398 19.902,-14.078 19.902,-13.679 7.235,-1.559 6.781,-0.402 7.234,1.172 6.785,2.359 6.79,6.25 5.878,7.039 5.879,7.422 4.52,7.816 4.973,10.16 4.98,10.551 8.133,21.891 3.177,10.941 3.16,11.328 4.52,22.672 -2.71,2.739 -3.61,2.351 -32.572,0.777 -32.559,-0.777 -5.43,-4.301 -4.523,-5.48 -4.981,-0.781 -4.519,0.39 -20.352,28.539 -19.441,29.301 0.895,3.141 1.816,2.73 9.492,5.469 9.055,6.25 4.969,0.781 5.429,-0.379 6.778,-0.402 6.789,0.402 28.496,5.86 28.484,7.418 13.117,4.703 5.879,1.168 5.878,-0.399 11.31,-6.25 11.31,-5.859 23.06,-10.563 1.81,-4.289 0.91,-4.691 -25.78,-1.168 -26.23,-0.402 h -25.783 l -26.231,1.179 v 0" /><path
         id="path42"
         style="fill:#100f0d;fill-opacity:1;fill-rule:evenodd;stroke:none"
         d="m 292.156,232.551 1.809,-1.949 2.265,-3.133 1.805,-3.508 0.91,-3.52 0.899,-3.91 0.449,-3.511 -0.449,-3.918 -0.449,-3.512 -0.911,-3.91 -1.355,-3.532 -1.348,-3.117 -1.816,-2.73 -2.254,-2.352 -2.719,-1.949 -2.715,-1.57 -7.683,-3.899 -7.239,-4.699 -6.785,-5.082 -6.328,-5.469 -3.176,-2.34 -3.613,-1.953 -6.785,-1.957 h -6.777 l -7.239,1.559 -6.336,3.129 -4.074,3.133 -2.703,4.289 -2.266,4.691 -0.449,5.477 v 160.632 l -19.453,-25.793 -18.547,-26.187 3.176,-3.902 2.254,-4.7 0.91,-5.078 v -5.082 l -1.809,-5.078 -2.265,-5.082 -3.164,-4.687 -3.621,-3.911 -3.614,-2.339 -4.074,-1.563 -4.07,-0.789 h -4.524 l -1.355,-0.379 -4.523,-3.133 -5.879,-3.527 -3.621,-1.172 -3.614,-0.777 -3.613,-0.391 -7.238,1.57 -3.172,1.957 -3.164,2.34 -2.258,2.723 -48.8477,66.07 v -86.383 l -0.4492,-5.089 -1.8164,-4.68 -2.2539,-3.129 -2.2657,-2.73 -2.7148,-2.348 -2.7149,-1.961 -3.164,-1.563 -3.6133,-1.168 -3.625,-0.789 h -3.6133 l -4.0703,0.399 -7.2383,2.73 -6.3281,4.309 -3.6211,3.902 -2.7148,5.078 -1.8086,3.911 -2.2657,3.519 -2.7031,3.512 -3.17186,2.738 -2.25781,2.352 -1.8086,2.73 -2.71484,5.867 L 0,252.102 v 6.25 l 1.35547,6.257 2.70703,7.032 3.17188,6.64 1.35156,2.36 0.45703,2.339 0.89844,24.622 0.45699,24.628 v 24.622 l -0.45699,24.609 -7.23828,12.508 -1.804692,4.301 -0.449219,4.312 v 4.289 l 1.355471,4.301 1.80859,3.91 2.71485,3.117 3.61328,2.742 4.07029,1.957 6.3399,2.731 11.7578,7.043 5.4297,4.297 3.164,2.34 3.6133,1.57 3.6211,0.769 4.0664,0.403 3.6211,-0.781 4.0703,-1.168 3.1641,-1.961 3.164,-2.34 11.7579,-12.903 11.3085,-13.289 10.8516,-14.07 9.9496,-14.078 32.121,-43.77 15.82,22.278 16.738,21.492 18.086,20.328 19.453,19.941 0.45,3.122 0.906,3.91 1.359,3.519 2.254,3.117 2.266,2.743 3.164,2.339 3.613,1.571 3.625,0.769 3.613,0.399 10.411,-0.778 9.941,-1.961 5.43,-1.949 9.949,-8.601 6.789,-4.692 6.777,-3.906 7.235,-3.133 4.074,-1.949 3.621,-2.73 3.168,-3.129 1.805,-4.309 1.355,-4.293 0.91,-4.301 v -9.379 l -1.816,-5.07 -2.715,-4.699 -4.063,-3.91 -4.98,-2.34 0.906,-139.539 v 0" /><path
         id="path44"
         style="fill:#100f0d;fill-opacity:1;fill-rule:evenodd;stroke:none"
         d="m 427.832,430.711 0.461,12.109 -3.164,4.309 -2.27,4.703 -0.906,4.289 -0.449,4.301 v 4.297 l 0.449,4.293 0.906,3.527 1.36,3.121 1.804,2.738 2.715,2.731 2.715,1.961 3.164,1.949 3.164,0.781 3.625,0.782 6.785,0.777 6.778,1.18 4.523,2.351 4.981,1.16 4.968,0.391 4.981,-0.77 3.164,-1.171 3.168,-1.579 2.711,-2.339 2.258,-2.34 1.816,-3.133 1.356,-3.117 0.902,-3.524 0.457,-3.117 v -44.949 l 9.941,0.387 h 4.52 l 7.238,-0.387 6.785,0.777 6.34,1.172 13.563,0.777 6.789,-0.386 6.328,-1.563 3.164,-1.57 7.234,-6.25 4.981,-3.52 5.422,-3.129 5.879,-3.121 2.714,-1.558 2.715,-1.969 2.266,-2.344 1.805,-2.726 2.257,-5.473 1.817,-5.859 0.449,-5.86 v -5.871 l -1.809,-7.027 -4.519,-5.481 -0.461,-1.562 -0.899,-4.297 -2.714,-9.391 -1.356,-9.761 v -13.68 l -0.906,-13.668 v -1.184 l -1.359,-5.867 -1.36,-5.472 -0.449,-4.68 v -7.039 l -0.906,-5.078 -1.36,-4.703 -1.804,-4.688 -2.258,-4.289 -2.715,-3.922 -3.621,-3.89 -3.613,-3.141 -4.075,-3.117 -37.539,-21.5 -1.355,-0.391 -16.281,-8.211 -15.379,-8.601 V 201.68 l 3.172,-5.86 0.902,-1.961 1.355,-5.078 0.457,-5.472 -0.457,-5.079 -1.355,-5.089 -1.809,-5.071 -3.164,-4.308 -3.625,-3.903 -4.07,-3.519 -4.524,-2.352 -9.492,-1.949 -9.043,-0.777 -9.5,1.168 -9.043,2.351 -5.879,3.129 -4.519,4.301 -3.625,5.469 -2.258,5.851 -0.906,6.25 0.906,6.27 2.258,6.25 3.625,5.078 0.445,14.082 -11.308,5.461 -10.848,5.859 -10.41,6.641 -9.953,7.437 -7.684,6.641 -6.777,7.039 -6.789,7.422 -6.328,7.43 -5.879,8.199 -5.426,8.601 -4.984,8.598 -4.059,8.992 -4.074,9.379 -3.164,9.379 -2.715,9.383 -2.266,9.769 -1.359,10.161 -1.356,9.769 -0.449,10.168 0.449,9.77 -1.808,2.73 -2.254,4.699 -0.91,5.071 0.449,5.089 1.359,5.082 4.071,6.641 5.429,5.469 3.164,2.742 4.075,1.559 5.867,2.339 5.429,2.75 5.43,3.508 4.981,3.91 2.257,1.563 2.715,1.57 5.879,1.559 5.879,0.39 h 5.879 l 5.879,-1.171 5.43,-1.957 38.437,-0.391 v 0" /><path
         id="path46"
         style="fill:#ffffff;fill-opacity:1;fill-rule:evenodd;stroke:none"
         d="m 447.285,409.609 2.715,41.422 -6.789,6.649 -0.906,3.91 0.457,4.301 10.851,1.168 11.309,2.73 1.805,1.582 h 2.714 v -32.84 l 0.45,-33.222 h 15.832 l 16.289,0.773 10.398,-0.383 20.801,2.352 h 10.402 l 5.879,-5.09 6.336,-4.691 6.777,-3.911 6.79,-3.507 1.359,-2.34 0.894,-2.75 v -5.473 l -2.703,-3.117 -1.808,-3.531 -1.356,-3.5 -0.91,-3.922 -3.16,-12.5 -1.809,-12.508 v -13.289 l -0.91,-13.293 -0.906,-4.297 -1.359,-4.301 -0.899,-7.82 v -7.813 l -0.906,-4.687 -2.266,-4.691 -3.164,-3.911 -3.613,-3.129 -37.539,-21.492 -21.711,-10.949 -21.707,-12.117 v -16.793 l 0.449,-16.809 4.52,-8.988 0.91,-3.523 -0.449,-3.911 -1.817,-3.117 -2.707,-2.351 -5.879,-1.571 -5.429,-0.379 -5.879,0.77 -5.879,1.57 -1.356,1.168 -1.359,1.571 -0.906,1.55 v 2.352 l 0.906,1.57 1.359,1.559 1.805,1.172 1.809,0.386 1.359,20.332 v 20.321 l -13.566,5.09 -12.668,5.859 -12.207,7.422 -11.758,8.207 -13.575,12.512 -5.878,7.031 -5.879,7.418 -5.418,7.43 -4.981,7.82 -4.07,8.211 -4.074,8.597 -3.164,8.602 -2.715,8.59 -2.254,9 -1.82,8.98 -1.805,18.77 v 8.969 l 0.906,9.402 -5.43,7.027 1.809,3.121 2.266,2.743 8.144,2.73 7.235,3.906 7.238,4.313 6.328,5.469 h 4.07 l 4.063,-0.399 4.074,-1.172 3.621,-1.558 62.414,-0.782 v 0" /><path
         id="path48"
         style="fill:#100f0d;fill-opacity:1;fill-rule:evenodd;stroke:none"
         d="m 1652.11,370.922 10.41,3.508 10.85,2.742 10.85,2.34 10.86,1.949 5.43,5.078 -6.79,-0.379 -6.79,-0.789 -6.32,-5.859 h -7.7 l -6.33,0.386 -5.88,1.961 -4.97,-3.129 -4.07,-3.121 -4.07,-3.519 -4.07,-3.918 8.59,2.75 z m -158.29,-4.703 -6.78,8.211 -5.43,6.25 -28.04,0.781 -27.59,-0.391 -0.45,-22.66 32.56,0.391 3.17,7.039 10.85,1.172 h 14.93 l 6.78,-0.793 z m 65.13,-116.848 -2.72,-8.609 -3.61,-7.813 -4.53,-7.429 -9.95,-12.891 -7.68,-0.777 -7.24,-0.391 -6.79,0.391 -11.75,1.949 -19,-0.781 -38.89,0.781 -19.45,1.551 -1.81,-7.801 h -29.86 l -4.51,3.5 -8.6,5.871 -18.09,10.16 -9.49,4.309 -6.79,3.121 -2.71,6.25 -1.81,6.648 -0.46,6.641 1.36,6.64 2.72,6.258 4.07,4.692 0.91,100.839 -11.76,-1.558 v 20.707 l 0.45,9.781 1.35,16.789 16.74,0.403 6.33,0.378 5.88,1.579 4.52,2.339 4.07,3.524 5.42,3.508 4.98,4.3 4.52,5.079 6.33,1.171 8.6,0.79 8.59,-0.79 15.83,-3.128 -0.45,-8.59 60.15,1.168 6.34,1.558 6.32,0.391 h 6.79 l 5.42,-4.68 5.88,-5.469 4.98,-6.261 4.52,-6.258 4.07,-7.02 3.17,-7.043 2.71,-7.437 1.81,-7.813 1.36,-7.808 1.35,-10.168 -8.14,-6.25 -4.97,-3.524 -5.43,-2.726 -6.33,-1.57 -6.33,-0.782 -9.5,1.168 -4.97,-6.636 -2.26,-6.653 -1.36,-7.418 -0.91,-7.031 -0.45,-7.418 -0.45,-17.203 -17.19,-1.168 h -6.78 l -6.33,0.769 -11.76,2.352 -3.17,12.5 -26.23,1.168 1.36,-46.512 18.54,-1.949 18.99,-0.769 h 18.55 l 18.99,1.55 4.98,2.34 3.61,3.922 2.72,4.688 1.81,5.46 1.81,16.032 h 41.16 l 3.16,-17.582 4.52,1.961 0.91,91.05 -13.13,3.918 -0.89,15.629 0.45,7.422 1.81,6.649 2.71,7.812 7.69,3.129 11.3,5.082 11.31,5.477 10.86,5.863 10.86,6.258 9.04,1.55 h 9.49 l 15.38,-1.949 0.45,-7.043 8.6,1.571 52.91,1.171 11.77,2.34 h 15.37 l 6.78,-2.73 4.08,-3.129 3.61,-3.902 5.43,-4.7 4.52,-5.078 4.07,-5.859 3.17,-6.262 0.9,-3.898 v -7.821 l -1.81,-7.82 -1.35,-3.512 -1.82,-3.519 -2.25,-3.531 -2.72,-1.938 -1.81,-3.121 -0.9,-3.129 v -3.519 l 1.36,-5.864 -2.72,-5.468 -1.81,-3.129 -1.81,-2.743 -2.26,-2.347 -2.71,-1.949 -3.17,-1.954 -3.17,-1.168 -6.33,-1.57 -5.88,-2.73 7.24,-14.071 8.14,-13.679 9.05,-13.289 9.95,-12.5 10.4,-12.121 10.85,-11.34 11.76,-10.942 12.67,-9.777 3.17,-2.34 4.06,-1.949 34.37,-14.461 -2.25,-16.031 -37.09,-5.078 -5.88,-1.571 -5.88,-2.73 -5.43,-3.52 -4.52,-4.691 -3.62,-4.692 -5.88,-1.949 -7.23,-0.789 -6.79,0.789 -6.79,1.949 -6.32,3.133 -8.15,7.809 -7.68,8.601 -10.86,13.289 -9.49,13.68 -9.05,14.852 -7.24,15.636 -8.14,14.461 -9.04,14.071 -9.05,13.672 -9.95,13.679 -1.81,2.348 -2.26,2.351 -5.43,3.129 -4.07,-0.39 -3.61,-0.789 -3.63,-1.559 -3.16,-2.34 -0.91,-107.101 -18.08,-0.782 -10.41,0.403 -9.95,0.769 -4.98,8.602 -4.06,6.25 -5.43,5.476 -5.88,4.301 -6.79,3.91 -4.07,3.121 -3.61,4.301 -2.71,5.09 v 0" /><path
         id="path50"
         style="fill:#100f0d;fill-opacity:1;fill-rule:evenodd;stroke:none"
         d="m 827.188,269.301 4.523,-5.86 3.609,-6.652 4.524,-10.551 -7.688,-8.988 -9.488,-10.551 -8.598,-11.347 -4.07,-5.082 -6.34,-1.559 -5.418,-1.16 -5.879,-0.789 -19.902,-1.571 v 53.547 l -104.922,84.422 -0.461,-126.238 -8.133,-5.461 -4.523,-1.961 -4.531,-1.57 -4.512,-0.782 -4.981,0.403 -6.328,2.719 -7.234,5.082 -6.34,6.648 -5.43,7.039 -4.519,8.211 -1.809,4.289 -1.355,4.301 -0.899,9.379 v 4.691 l 1.809,8.61 1.805,4.289 -0.45,114.121 -10.859,9 6.34,13.281 4.059,7.82 4.074,7.418 8.593,1.973 4.524,1.16 4.519,1.957 4.071,2.34 4.074,3.133 11.758,10.949 120.75,-98.492 -0.449,106.703 -16.727,14.84 16.277,14.078 6.789,4.289 6.778,3.531 10.859,4.289 8.582,-7.82 12.219,-10.539 13.113,-9.781 12.207,-8.977 -5.879,-13.691 -3.164,-5.461 -3.164,-4.7 -1.804,-164.929 v 0" /><path
         id="path52"
         style="fill:#1d1b19;fill-opacity:1;fill-rule:evenodd;stroke:none"
         d="m 1005.37,1436.75 -4.97,-5.87 -5.431,-5.47 -2.715,-4.3 -2.254,-4.31 -2.715,-12.1 2.715,-5.87 2.254,-6.25 0.461,-5.47 -0.461,-5.48 -1.348,-5.47 -2.265,-5.07 3.613,-3.52 2.715,-3.91 2.265,-4.7 1.809,-4.68 1.357,-4.69 0.46,-5.09 v -4.69 l -0.911,-5.08 -2.265,-10.16 -2.715,-10.16 -0.899,-4.69 0.899,-5.08 4.074,-13.68 3.627,-13.69 3.16,-14.06 2.26,-14.07 v -6.64 l -1.81,-6.26 -2.72,-5.86 -4.068,-5.08 -7.687,-7.43 -0.45,-9.77 -0.906,-9.38 -1.808,-9.77 -2.262,-9.38 -1.359,-7.04 -0.899,-7.42 v -7.04 l 0.449,-7.43 4.52,-14.07 8.594,-24.23 8.146,-24.62 1.36,-5.47 0.45,-5.86 v -5.86 l -0.45,-5.87 -1.36,-5.47 -1.81,-5.47 -2.71,-5.48 -2.716,-4.69 -9.953,-14.07 -10.399,-13.28 -1.808,-12.12 -2.715,-12.115 -6.785,-15.637 -7.688,-15.242 -3.621,-7.031 -2.715,-7.817 -1.808,-7.429 -0.907,-8.204 v -3.917 l 0.907,-3.907 1.808,-8.98 0.906,-8.606 v -8.984 l -0.906,-8.992 -0.449,-6.645 v -6.648 l 0.906,-6.25 0.899,-6.641 3.175,-13.293 1.805,-13.289 V 820.77 l -0.906,-13.672 -3.164,-6.649 -3.164,-4.687 -3.176,-5.086 1.359,-14.453 0.457,-14.465 -1.355,-14.461 -2.715,-14.465 -0.449,-5.078 v -5.469 l 0.898,-5.469 0.907,-5.089 1.359,-5.086 2.266,-5.071 2.253,-4.695 3.164,-4.687 2.266,-3.918 2.258,-4.297 1.355,-4.293 1.36,-4.692 0.91,-9.383 -0.461,-4.675 -0.898,-4.7 -1.36,-6.25 -2.265,-5.871 -2.254,-10.933 -0.911,-11.34 -1.804,-12.5 -1.36,-5.867 -2.253,-5.864 1.347,-6.253 0.906,-3.911 v -8.589 l -0.906,-3.922 -2.715,-6.25 -4.523,-5.481 V 555 l 0.91,-7.418 v -7.434 l -0.91,-7.429 -1.348,-7.418 -1.816,-7.43 -2.711,-7.031 -3.617,-6.649 -4.071,-6.25 -14.472,-25.402 -5.879,-6.258 -6.789,-5.472 -14.922,-10.168 -10.399,14.468 -4.074,6.641 -2.715,7.039 -0.449,7.813 0.449,7.429 1.809,7.418 2.715,7.039 2.715,7.434 1.355,8.207 1.809,12.891 2.715,12.902 v 7.027 l -1.36,6.653 -0.898,7.82 -1.817,7.43 -2.254,7.808 -2.714,7.031 -3.625,7.039 -4.063,7.036 -4.519,6.25 -4.981,5.867 -1.808,3.515 -1.356,3.516 -1.809,7.043 v 7.422 l 0.911,3.902 0.898,3.528 4.52,8.593 5.429,7.821 -3.621,12.113 -2.258,12.508 -1.804,12.5 -0.461,12.898 1.808,18.371 2.266,18.367 0.906,7.825 -0.906,7.422 -1.809,7.421 -2.714,7.04 -3.622,7.816 -2.257,8.211 -0.907,8.996 -0.449,9.375 0.449,9.383 1.356,8.984 1.808,11.727 v 11.73 l -1.347,5.078 -2.715,4.297 -6.789,10.156 -5.879,10.95 -1.805,4.293 -0.91,4.308 -0.449,4.688 v 4.687 l 0.449,4.688 0.91,4.304 1.805,4.297 2.258,4.301 6.336,11.727 5.879,12.507 5.429,12.5 4.524,12.903 2.254,7.429 2.265,7.817 0.91,8.203 0.899,7.817 0.906,10.55 2.258,10.56 3.164,10.16 4.52,9.77 1.359,2.73 0.906,2.74 v 6.26 l -1.805,7.42 -1.808,7.04 -2.266,7.03 -3.164,6.65 -3.621,8.59 -2.703,9 -2.27,8.98 -1.355,9.39 -0.91,9.37 v 9.39 l 0.461,9.37 1.355,9 1.809,8.59 1.355,8.6 0.91,8.6 0.45,8.99 v 7.04 l -1.36,6.63 -2.715,6.65 -4.07,5.47 -3.164,4.7 -2.715,5.08 -1.359,5.08 -0.899,5.47 0.45,8.21 1.808,8.2 4.071,17.98 -2.254,5.08 -1.817,5.87 -1.359,5.86 -0.449,5.86 -0.45,8.99 0.45,9.39 0.91,8.98 1.347,9 1.817,9.37 0.449,9.77 -6.328,6.64 -6.789,6.26 -5.43,7.42 -2.715,5.47 -1.804,5.48 -0.911,6.25 0.461,5.86 1.356,4.69 1.808,4.31 2.715,3.9 3.164,3.52 1.809,3.12 0.906,3.53 -1.359,10.55 -2.266,10.16 -1.804,7.82 -0.45,7.82 -2.715,3.51 -3.164,2.74 -9.503,6.64 -4.52,-1.56 -4.973,-0.79 h -4.98 l -4.52,0.39 -4.972,1.57 -4.071,1.95 -4.074,2.36 -4.07,3.12 -5.43,0.39 -4.973,1.17 1.36,-4.68 0.906,-4.7 1.359,-11.33 -9.054,-6.26 0.461,-6.25 0.898,-7.03 0.457,-7.04 -0.906,-4.69 -1.359,-5.08 -2.254,-4.31 -3.176,-3.9 -6.328,-5.47 -7.235,-4.3 -7.687,-4.69 -7.234,-5.08 -0.911,-9.78 v -19.15 l 0.45,-9.76 4.984,-3.13 4.519,-3.52 7.235,-6.25 -1.356,-9.78 -1.808,-10.16 -3.172,-9.77 -4.063,-9.77 -4.98,-8.99 -4.523,-7.03 -3.614,-7.44 -0.906,-3.9 v -8.2 l 0.906,-3.91 3.164,-14.85 2.258,-15.64 -0.449,-7.04 -0.899,-7.42 v -2.74 l 0.899,-5.47 1.355,-2.35 5.434,-11.72 5.418,-12.12 2.266,-7.81 1.359,-8.6 0.906,-3.52 1.805,-3.12 11.758,-15.64 2.257,-3.92 2.266,-4.29 1.805,-4.3 1.359,-4.29 0.457,-6.25 v -5.87 l -1.816,-6.25 -2.254,-5.48 -9.5,-16.41 -7.688,-17.2 -1.355,-5.08 v -5.08 l 0.906,-5.47 1.805,-4.7 2.258,-5.08 1.355,-5.07 v -5.47 l -0.898,-5.48 -2.262,-7.42 -3.617,-7.43 4.074,-4.3 3.164,-4.69 2.715,-5.088 2.254,-5.465 1.359,-5.469 0.906,-5.863 v -5.867 l -0.906,-5.469 -3.613,-15.633 -5.43,-15.246 -12.207,-47.293 -5.89,-17.199 -1.356,-10.547 -0.449,-10.164 1.805,-10.547 2.714,-10.168 2.27,-7.422 1.805,-7.82 1.355,-8.207 0.449,-8.211 v -7.813 l -0.449,-8.203 -1.355,-7.82 -1.805,-8.215 -2.27,-16.406 -1.355,-16.817 -0.449,-16.406 0.91,-16.809 0.445,-12.898 -0.445,-13.289 -0.91,-12.902 -1.809,-12.903 v -5.468 l 1.36,-5.079 1.804,-6.648 1.36,-6.641 0.898,-7.031 v -7.031 l 4.07,-8.211 5.879,-6.25 1.36,-5.082 1.359,-7.43 1.355,-6.262 -8.144,-16.027 8.594,-46.5 -7.688,-4.301 -42.058,33.61 -7.239,21.109 0.91,12.5 v 7.039 l -2.265,5.863 -4.973,5.868 -3.621,7.421 -3.164,7.434 -4.523,16.797 -4.071,17.598 -2.715,17.199 -1.808,17.586 -0.906,14.074 -2.258,13.672 -3.164,13.68 -4.071,13.289 -6.328,14.074 -5.429,14.844 -1.36,4.304 -0.906,4.692 v 8.984 l 0.449,4.297 0.906,4.297 1.36,4.304 1.804,4.297 -4.519,7.039 -3.613,7.422 -1.805,5.86 -0.91,5.871 v 6.25 l 1.355,5.871 2.715,8.203 -9.051,7.422 -2.707,2.742 -2.715,3.125 -2.265,3.516 -1.805,3.515 -1.359,6.25 v 5.867 l 0.91,5.864 0.898,5.465 1.809,5.48 1.812,5.078 2.258,5.078 2.715,5.086 6.34,9.375 3.16,4.301 2.707,4.305 2.266,4.687 1.804,5.078 1.817,10.164 v 5.469 l -0.457,5.09 -2.715,16.016 -2.258,26.189 v 2.74 l -0.906,2.73 -1.359,2.34 -1.805,1.96 -3.164,4.3 -2.266,4.3 -1.808,5.08 -0.907,5.08 0.457,7.43 1.809,7.03 4.52,12.9 -1.805,7.03 -0.91,14.07 0.461,6.65 0.449,7.04 -0.91,7.04 -8.594,30.47 -9.492,30.5 -1.805,7.41 -2.715,6.66 -12.219,19.54 -4.062,5.85 -2.715,6.66 -1.816,7.03 -1.356,7.03 0.457,7.82 0.899,7.82 12.668,59.41 4.074,12.11 4.969,12.12 -2.715,18.75 0.457,6.65 1.359,6.26 1.805,5.86 v 2.73 l -0.449,2.74 -2.715,8.6 -2.266,8.2 -8.594,5.48 -3.613,2.34 -3.621,2.74 -5.43,7.04 -2.257,5.47 -1.356,6.25 v 6.25 l 1.356,5.87 2.714,7.81 -2.265,5.48 -2.254,3.52 -3.164,2.34 -13.117,2.73 -28.953,5.47 -14.016,3.92 -14.024,4.68 -9.043,-1.17 -8.593,-0.78 -9.043,0.39 -4.969,0.78 -4.074,3.13 -4.071,5.08 -1.808,3.13 -0.906,2.74 -0.911,3.51 -0.449,3.13 v 3.51 l 0.449,3.12 2.266,5.09 2.715,4.69 7.238,8.6 5.879,3.52 5.879,2.73 6.777,1.57 h 12.215 l 9.953,3.12 9.493,4.69 9.043,4.3 9.5,3.13 9.953,2.35 9.949,1.17 32.109,1.56 4.524,0.78 4.519,1.17 4.524,2.35 3.621,2.73 5.879,5.09 7.687,1.17 8.594,7.03 9.5,5.87 6.777,0.78 6.789,-0.78 3.164,-1.17 3.164,-1.56 2.715,-1.57 2.715,-2.35 3.621,-3.9 3.613,-3.13 4.524,-2.74 4.98,-1.95 50.196,-1.96 4.074,-2.73 4.07,-3.13 3.164,-3.52 3.164,-3.9 4.981,5.86 5.418,4.69 6.34,3.9 6.777,3.14 2.266,7.42 5.429,3.9 4.973,3.53 5.875,1.95 6.34,1.17 h 5.879 l 5.879,-0.78 4.519,-3.52 7.688,5.48 7.683,4.29 8.598,3.52 8.59,2.73 32.109,5.48 10.41,4.3 9.492,7.81 7.239,3.92 4.074,1.17 4.07,0.78 h 4.973 l 4.519,-0.78 4.071,-1.95 4.074,-2.36 14.922,-10.93 15.832,-9.78 15.828,-8.98 16.74,-7.83 4.97,-2.73 4.52,-4.3 3.62,-4.7 2.26,-5.46 0.91,-5.08 0.9,-5.47 8.14,-0.78 4.07,-1.17 4.52,-1.97 3.63,-2.73 3.61,-3.13 2.27,-2.73 1.8,-3.12 1.36,-3.52 0.9,-3.53 15.38,4.7 14.92,6.25 5.88,3.12 4.52,3.91 3.62,5.09 2.71,5.47 1.82,5.86 4.97,3.52 5.43,3.52 5.43,3.12 6.32,2.35 5.88,2.34 6.79,5.48 7.24,5.08 5.42,1.95 6.78,0.39 6.79,-1.17 7.24,-1.95 3.61,-6.27 2.71,-3.12 3.63,-1.95 10.4,-2.34 10.86,-1.96 6.33,-1.95 5.42,-2.75 4.98,-3.9 4.07,-4.69 9.04,-12.9 16.73,-5.08 -3.16,-16.41 -0.9,-5.86 4.06,-3.13 4.07,-3.91 3.17,-4.69 2.26,-5.08 1.81,-5.86 0.46,-5.48 -0.91,-9.37 -1.81,-9.39 5.88,-6.25 1.81,-3.51 1.36,-3.14 0.9,-3.51 0.45,-3.52 v -5.86 l -2.71,-5.09 -12.67,-20.32 v -7.81 l -0.45,-3.91 -2.71,-7.82 -1.81,-3.52 -2.26,-3.51 -2.26,-3.14 -9.5,-10.54 -6.33,-22.28 -5.43,-22.68 -2.27,-5.85 -2.7,-5.86 -2.72,-5.48 -3.62,-5.47 -1.36,-3.52 -1.8,-3.51 -0.91,-3.53 -0.45,-3.9 1.36,-12.12 v -12.5 l -0.45,-12.12 -1.81,-12.12 5.88,-4.69 3.16,-3.9 2.26,-4.3 1.82,-4.31 0.9,-5.08 -0.9,-11.72 -4.53,-23.45 -3.62,-11.34 -3.62,-15.25 v -3.12 l 0.46,-3.13 0.91,-3.12 1.34,-2.73 15.38,-23.06 4.08,-8.6 3.16,-8.6 2.72,-9.38 1.8,-9.38 0.45,-9.38 v -9.78 l -0.9,-9.37 -2.26,-9.38 -1.35,-10.16 -3.17,-10.56 -2.72,-7.03 -3.61,-7.043 -3.62,-6.637 -4.53,-6.645 -5.88,-8.992 -0.44,-4.687 0.89,-4.688 10.86,-26.191 2.27,-8.594 0.9,-8.992 -0.45,-8.606 -2.27,-8.593 -5.42,-11.336 -6.78,-10.547 -2.72,-4.692 -2.26,-4.695 8.14,-19.539 2.71,-7.031 1.36,-7.434 v -7.812 l -0.91,-7.43 -0.9,-3.906 -1.81,-4.297 -3.61,-9.778 -1.82,-10.554 -0.45,-10.547 0.91,-10.547 6.78,-23.449 1.81,-4.699 -1.36,-5.079 -1.8,-7.421 -3.18,-7.43 -3.61,-6.641 -4.07,-6.648 -4.97,-14.074 -7.69,-11.719 -6.78,-12.508 -6.34,-12.902 -4.97,-12.903 0.45,-3.902 1.35,-3.125 9.96,-13.293 -12.67,-12.898 -3.16,-7.422 -4.53,-3.52 -4.52,-4.304 -22.61,-29.7 -9.5,3.129 -1.35,37.137 -0.46,10.937 -1.35,10.559 -1.36,10.934 -2.27,10.558 -1.35,5.078 -0.45,5.481 v 5.465 l 0.9,5.468 0.46,5.481 v 5.469 l 4.52,26.961 -0.45,6.64 -2.27,6.653 -4.52,10.164 -4.07,10.941 -1.36,3.902 -0.9,4.309 -0.46,4.687 v 4.297 l 0.46,4.309 0.9,4.297 1.36,4.297 1.81,3.906 6.78,12.508 6.34,12.89 1.35,3.528 v 3.511 l -0.45,3.52 -0.9,3.512 -2.26,5.082 -1.81,5.086 -1.36,5.468 -0.91,5.481 0.45,8.59 1.36,8.988 2.27,8.211 3.61,8.203 3.62,7.434 3.16,7.808 0.91,6.653 0.45,6.64 v 7.031 l -0.9,6.653 -0.9,9.762 -0.46,10.167 0.46,9.778 1.35,10.152 2.26,13.293 1.36,13.684 v 14.07 l -0.91,13.668 -1.81,9.39 -2.25,9.38 -3.18,9.38 -3.61,8.98 -2.72,5.87 -1.8,6.25 -1.36,6.65 -0.91,13.28 0.46,6.26 0.9,6.65 1.36,6.25 6.78,21.1 0.45,2.74 -0.89,2.34 -6.79,13.69 -7.69,13.28 -5.43,9.78 -4.07,10.93 -3.16,10.95 -1.36,11.33 0.45,8.21 0.91,8.21 1.35,8.21 1.81,8.21 0.91,4.69 0.45,4.68 v 5.09 l -0.45,4.69 -4.98,5.47 -4.07,6.26 -1.35,3.12 -0.91,2.73 -0.45,3.52 v 3.13 l 0.45,3.12 0.91,3.14 0.9,2.73 1.8,2.74 6.79,8.59 11.31,12.51 -1.81,3.9 -1.35,4.31 -0.91,4.3 -0.45,4.69 0.45,5.86 1.35,5.87 1.36,5.47 2.26,5.85 -1.81,7.43 -0.9,4.3 -0.46,4.3 v 4.3 l 0.46,3.91 1.35,8.2 0.91,7.83 0.45,8.2 v 7.82 l -0.45,3.91 -0.91,3.51 -3.61,6.25 -3.62,2.35 -3.62,1.57 -3.61,1.17 h -4.08 l -27.58,0.39 -9.5,0.78 -9.5,2.74 -8.59,3.9 -8.15,5.49 -5.43,0.37 -15.83,-0.37 -8.59,3.12 v 0" /><path
         id="path54"
         style="fill:#ffffff;fill-opacity:1;fill-rule:evenodd;stroke:none"
         d="m 1657.99,353.32 18.99,5.481 9.95,1.949 9.95,1.559 3.63,1.179 3.61,1.563 3.17,1.961 3.16,2.738 5.43,5.859 2.26,3.121 1.81,3.129 0.91,3.512 0.9,3.918 -0.45,3.512 -0.45,3.91 -1.36,3.519 -2.26,3.129 -8.6,1.551 -9.04,0.399 h -9.04 l -8.6,-1.18 -4.98,-2.719 -4.07,-3.14 -4.06,1.171 -4.08,2.348 -10.84,-4.301 -10.41,-5.476 -9.05,-7.422 -4.52,-3.91 -3.61,-4.289 -0.91,-4.7 -0.45,-5.07 -1.81,-6.262 -0.9,-6.64 v -6.649 l 0.44,-6.25 17.64,6.649 17.64,5.851 z m -10.4,-14.07 -4.52,-0.379 -4.53,-1.18 -4.07,-1.57 -4.52,-1.941 -3.61,-2.739 -3.63,-3.132 -3.16,-3.118 -2.71,-3.91 -0.45,-95.371 h -8.6 l -5.43,8.602 -6.78,7.429 -8.14,6.25 -8.59,4.688 -2.27,2.742 -0.9,3.117 0.45,3.532 0.9,3.121 2.72,1.949 2.26,2.742 1.81,2.727 1.36,3.132 v 91.848 l 0.9,11.723 -0.9,11.726 -13.57,1.172 0.45,3.129 0.91,3.512 11.3,4.687 10.86,5.473 10.86,5.871 10.4,6.648 4.97,0.379 h 4.52 v -4.679 l -0.45,-4.309 -9.04,-4.289 0.45,-8.602 1.35,-8.601 8.15,7.812 4.06,3.52 9.05,6.25 4.52,2.348 4.98,1.562 5.43,1.18 31.66,1.168 32.1,0.39 11.76,1.95 2.26,-1.95 1.81,-2.738 4.08,-2.73 3.61,-3.129 3.16,-3.903 2.27,-4.308 0.45,-2.731 v -3.129 l -0.91,-2.73 -1.35,-2.352 -3.17,-2.738 -4.52,-6.25 -1.81,-3.91 -0.91,-3.52 -0.45,-3.902 -0.45,-4.301 0.9,-3.906 -1.35,-1.562 -1.36,-1.168 -1.35,-0.793 -1.81,-0.387 -8.14,-1.184 -7.7,-2.718 -7.68,-3.532 -6.33,-4.687 -8.15,-0.391 v 1.57 l -0.9,1.559 -0.9,0.781 -1.36,0.782 h -6.79 l -6.32,-0.383 -0.91,-1.957 -0.45,-1.571 0.45,-1.953 0.46,-1.558 4.52,-1.18 h 4.07 l 7.23,-1.949 7.23,-2.731 5.89,-4.3 5.42,-5.481 7.69,-14.848 8.6,-14.461 9.49,-14.058 10.4,-13.301 10.86,-12.902 11.76,-12.098 12.66,-10.949 13.12,-10.563 5.42,-3.898 5.89,-2.742 -4.98,-0.789 -4.97,-1.551 -9.05,-3.918 -4.07,-2.731 -4.07,-3.128 -3.62,-3.512 -3.16,-3.52 -2.72,-0.789 -5.42,0.789 -2.27,1.559 -6.78,6.25 -6.33,7.422 -10.41,12.121 -9.04,13.289 -8.14,13.687 -6.79,14.461 -8.59,14.852 -9.04,14.848 -9.49,14.07 -9.96,14.07 -3.17,4.301 -3.61,3.898 -4.52,3.133 -4.53,2.34 -2.71,1.969 -2.71,1.16 -3.63,0.398 -3.16,-0.398 v 0" /><path
         id="path56"
         style="fill:#ffffff;fill-opacity:1;fill-rule:evenodd;stroke:none"
         d="m 1370.8,390.461 -5.88,1.551 h -5.87 l 0.45,7.82 9.04,0.777 9.51,2.352 6.33,3.121 5.42,4.699 4.07,2.34 4.07,2.738 3.16,2.743 3.18,3.507 5.42,0.403 4.98,-0.403 -0.91,-3.507 0.45,-3.52 1.82,-3.133 2.25,-2.34 79.6,1.563 4.07,1.558 4.52,0.391 4.52,-4.289 3.62,-4.703 3.62,-5.078 3.17,-5.469 2.71,-5.473 2.27,-5.859 1.34,-5.859 0.91,-6.25 -2.71,-1.969 -2.71,-1.16 -3.17,-1.172 h -3.17 l -3.16,3.512 -2.26,3.91 -4.53,6.636 -5.43,6.262 -5.87,7.031 -7.24,5.86 -33.47,1.179 -33.47,-0.398 -4.97,-1.953 -4.07,-3.117 -3.16,-3.91 -1.81,-5.09 -0.91,-46.512 60.16,0.789 2.26,1.563 2.26,1.949 2.72,4.687 5.87,0.403 5.88,-0.403 -2.71,-8.59 -2.27,-8.609 -1.36,-8.59 -0.44,-8.988 h -4.08 l -4.07,0.398 -3.16,15.621 -27.14,0.79 -26.68,-0.399 -4.52,-3.902 -1.36,-2.739 -0.91,-3.121 -0.45,-61.371 3.63,-3.906 4.06,-3.512 4.52,-3.129 4.53,-2.351 20.8,-1.942 20.8,-0.777 20.81,0.379 20.8,1.949 5.43,1.961 4.52,2.738 4.53,3.512 4.07,3.91 3.16,4.301 2.72,5.078 1.8,5.082 1.36,5.481 h 8.6 l 0.44,-6.262 v -6.262 l -0.89,-6.25 -1.36,-6.25 -2.27,-5.867 -2.71,-5.473 -3.17,-5.468 -4.07,-5.078 -5.88,0.789 -5.88,1.16 -25.32,-1.16 -25.33,0.39 -25.33,0.77 -25.32,2.347 -1.81,-1.558 -1.81,-2.34 -0.91,-2.352 v -2.347 h -9.04 l -9.5,6.25 -9.95,5.871 -19.89,10.16 -0.91,1.957 v 1.949 l 0.45,2.344 0.46,1.566 2.71,2.731 2.71,3.141 1.35,3.511 1.36,3.91 v 120.77 0" /><path
         id="path58"
         style="fill:#ffffff;fill-opacity:1;fill-rule:evenodd;stroke:none"
         d="m 808.641,260.309 2.714,-1.957 2.715,-2.34 2.258,-3.133 1.817,-3.129 -9.504,-11.328 -9.5,-11.723 -8.137,-1.179 v 41.82 l -142.012,114.91 -2.715,-155.949 -5.879,3.519 -4.968,4.692 -4.075,4.687 -3.621,5.871 -1.808,5.078 -0.906,5.071 0.906,7.051 2.715,6.25 -0.457,127.41 -6.329,5.082 3.622,7.039 7.238,1.949 6.777,2.73 6.336,3.911 5.883,4.691 138.387,-112.953 0.449,152.043 -3.613,4.297 -4.075,3.902 4.075,2.75 4.07,2.34 13.117,-11.34 14.024,-10.539 -3.176,-5.094 -3.164,-1.558 -2.715,-2.36 -0.449,-182.511 v 0" /><path
         id="path60"
         style="fill:#a0cf1e;fill-opacity:1;fill-rule:evenodd;stroke:none"
         d="m 904.52,547.18 v 9.379 l -1.356,9.781 -1.359,8.59 -1.805,9 -2.266,8.59 -3.613,8.605 -3.625,7.809 -4.519,7.824 -5.43,7.422 -5.418,7.031 -1.359,2.352 -0.461,2.738 v 2.34 l 0.461,2.738 3.164,6.25 4.07,5.867 3.168,4.297 1.805,5.09 0.457,2.722 -0.457,2.344 -3.614,11.348 -2.715,11.328 -1.808,11.719 -0.457,11.726 1.355,17.59 2.266,17.598 0.898,5.469 v 5.078 l -0.449,5.468 -0.449,5.079 -0.906,5.48 -1.805,5.074 -1.809,4.692 -4.523,10.164 -1.356,5.078 -0.91,7.43 v 7.816 l 0.45,7.43 0.91,7.422 1.355,7.421 0.899,14.856 -0.45,7.039 -0.898,5.078 -1.816,4.688 -2.254,4.296 -2.715,4.309 -5.879,8.594 -4.524,8.992 -1.355,4.297 -0.449,4.687 0.898,4.688 9.043,17.199 5.879,12.898 5.879,13.684 4.98,13.68 2.715,8.984 2.254,8.992 1.817,9.375 0.449,9.385 0.91,8.6 1.805,8.21 2.715,8.2 3.164,7.82 2.714,5.47 1.36,6.25 0.898,5.87 -0.449,6.25 -1.809,8.61 -2.265,8.2 -3.164,8.21 -3.164,7.82 -3.164,7.42 -2.262,7.43 -1.809,7.42 -1.359,7.82 -0.906,7.82 v 7.8 l 0.449,7.83 0.906,7.81 2.266,9.38 1.359,9.38 1.805,18.77 v 5.47 l -0.449,5.08 -0.907,5.48 -1.355,5.07 -1.809,4.69 -2.265,5.08 -6.328,8.6 -1.36,1.95 -0.906,1.96 -0.899,2.34 -0.46,2.35 0.46,5.09 0.899,5.07 4.519,16.81 0.911,4.29 v 3.91 l -0.45,3.92 -1.355,3.91 -3.168,7.03 -1.356,7.82 -0.46,7.81 0.46,7.82 0.899,7.43 1.355,7.81 1.809,12.12 0.461,12.12 v 2.34 l -0.91,2.34 -2.258,4.3 -4.52,5.48 -4.98,4.68 -4.973,5.08 -4.07,5.48 -0.91,1.96 -0.899,2.34 -0.457,2.34 v 2.35 l 1.817,3.51 2.254,3.53 3.625,4.29 2.703,5.08 1.359,5.47 0.457,5.48 -1.355,12.5 -2.715,12.12 -1.359,6.64 v 6.65 l -0.45,3.52 -1.804,3.12 -5.43,6.65 -6.336,5.47 -18.09,13.29 -8.144,-3.91 -2.715,-0.78 -2.703,-0.39 h -2.715 l -2.715,0.39 -2.715,1.16 -2.266,1.58 -1.808,1.95 -1.805,2.35 -8.594,2.73 -2.265,-0.78 h -2.715 l -2.715,0.39 -2.258,1.56 -1.804,1.56 -1.36,2.35 -0.457,2.73 v 2.36 l -2.707,6.25 4.074,4.68 4.512,3.91 5.43,3.12 5.879,1.97 3.621,2.73 2.715,3.52 2.257,3.9 1.356,4.31 2.266,1.56 2.714,0.77 2.707,0.41 h 2.715 l 4.981,-2.74 5.429,-1.96 h 5.418 l 5.879,1.56 5.879,5.09 6.34,4.3 7.234,3.51 7.688,2.34 33.016,5.87 15.371,6.25 10.402,8.21 4.07,1.57 4.524,0.78 16.738,-11.73 16.738,-10.55 17.637,-9.77 18.086,-8.6 3.167,-1.96 1.81,-3.12 0.9,-4.69 v -4.7 l 0.91,-7.81 1.36,-2.73 2.25,-1.96 4.07,-1.56 4.08,-0.39 11.31,-0.78 3.16,-2.35 2.72,-2.74 -0.46,-3.91 -0.9,-3.9 -7.24,-2.35 -8.14,-0.78 -8.6,-6.65 -8.13,-7.81 -2.267,-2.73 -1.359,-2.74 -0.899,-3.52 -0.457,-3.13 -0.449,-4.3 -0.91,-4.29 -2.254,-3.92 -2.715,-3.52 -8.594,-9.37 -2.715,-3.51 -2.257,-3.53 -2.262,-3.91 -1.809,-4.29 -2.265,-5.08 -2.715,-5.48 -0.899,-3.12 0.45,-3.52 1.804,-5.48 2.266,-5.08 1.809,-3.51 1.359,-3.91 v -3.12 l -0.91,-3.14 -4.969,-8.59 -1.359,-2.74 -0.911,-2.73 v -1.96 l 0.461,-1.95 0.899,-1.96 1.816,-1.17 4.52,-3.52 4.074,-3.9 2.703,-4.69 1.359,-5.09 -0.449,-5.47 -1.808,-8.99 -2.715,-8.6 -0.906,-5.47 -0.45,-5.48 0.45,-5.46 1.359,-5.08 3.621,-12.51 3.613,-12.9 2.715,-13.29 2.266,-12.89 v -2.35 l -0.461,-2.34 -1.356,-2.36 -1.355,-1.95 -7.688,-6.64 -4.519,-4.29 -0.91,-2.75 -0.449,-2.73 v -9.38 l -0.45,-9.38 -1.808,-9.38 -2.262,-8.99 -1.809,-9.38 -0.91,-9.38 -0.445,-9.39 0.894,-9.37 2.715,-8.59 3.176,-8.61 8.133,-23.45 7.687,-23.84 0.907,-3.91 0.449,-3.52 v -3.9 l -0.449,-3.53 -0.907,-3.51 -2.714,-7.04 -1.809,-3.12 -9.039,-12.51 -9.953,-11.72 -2.266,-3.13 -1.348,-3.52 -1.359,-3.91 -0.457,-3.91 -1.348,-8.98 -1.367,-8.598 -6.328,-14.07 -6.785,-13.684 -4.523,-8.992 -3.614,-9.77 -2.265,-9.773 -1.348,-10.156 0.449,-6.653 1.356,-6.636 1.359,-7.043 0.898,-7.032 v -7.421 l -0.898,-7.043 -0.457,-8.204 v -8.601 l 0.906,-8.203 1.356,-8.211 2.715,-10.942 1.359,-11.335 0.449,-11.34 -0.449,-10.934 -5.879,-8.996 -4.98,-9.766 2.265,-14.07 0.449,-14.074 -1.355,-14.453 -2.258,-14.075 -0.91,-7.039 v -7.421 l 0.91,-7.032 1.348,-7.043 1.816,-7.027 2.715,-6.652 3.164,-6.641 4.063,-5.867 2.722,-5.078 1.348,-5.082 0.461,-5.868 -0.91,-5.468 -0.899,-5.078 -1.816,-5.079 -1.805,-6.648 -1.359,-7.031 -0.906,-6.645 -0.45,-7.039 -0.898,-9.375 -1.36,-5.476 -2.265,-5.082 -0.906,-2.743 v -3.125 l 2.265,-10.156 0.449,-3.129 v -3.133 l -0.898,-1.949 -1.359,-1.168 -3.172,-1.961 -3.164,-9.761 v -12.118 l 0.906,-5.859 v -5.871 l -0.449,-6.25 -0.907,-5.859 -1.808,-5.872 -2.266,-5.468 -2.715,-5.481 -3.164,-5.07 -13.562,-24.231 -3.625,-3.91 -4.52,-3.531 -1.808,3.141 -1.356,3.511 -0.449,4.688 0.449,4.312 0.907,4.688 1.808,3.902 2.266,5.481 1.804,5.468 1.809,10.942 1.805,12.508 2.715,12.5 v 0" /><path
         id="path62"
         style="fill:#a0cf1e;fill-opacity:1;fill-rule:evenodd;stroke:none"
         d="m 717.285,653.879 v -9.375 l 1.805,-9.375 1.359,-4.699 0.906,-4.688 0.45,-5.078 v -4.695 l 3.164,-13.285 2.715,-3.914 1.808,-4.301 4.981,-4.688 1.355,-6.25 -4.98,-9.383 -3.164,-7.027 1.359,-9 1.355,-6.641 -8.593,6.641 -4.071,12.91 0.457,8.207 0.899,8.203 -2.254,7.821 -3.625,8.988 -4.52,5.086 -4.972,10.937 -4.52,16.028 -3.625,16.023 -2.715,16.024 -1.355,16.418 -1.359,15.234 -2.715,15.645 -3.614,15.246 -4.519,14.839 -6.336,13.293 -4.973,14.075 -1.359,5.859 v 6.25 l 1.359,5.867 2.715,5.469 1.356,3.516 v 3.906 l -1.356,4.305 -2.265,4.296 -3.614,5.864 -3.164,5.867 -0.906,2.734 -0.453,2.735 v 2.734 l 0.898,2.734 3.176,11.336 0.449,4.692 -0.906,4.683 -2.258,3.528 -3.176,3.125 -9.492,7.812 -2.715,3.516 -1.355,3.918 1.355,8.59 2.258,8.996 4.07,8.203 4.981,7.422 4.074,5.871 3.613,6.25 2.715,6.258 2.715,7.031 1.356,6.64 0.902,7.434 0.457,7.027 -0.91,7.043 -2.711,15.633 -1.809,25.008 -0.91,5.86 -1.805,5.87 -2.714,5.47 -4.075,4.69 -1.804,2.74 -1.36,3.52 0.461,3.9 0.899,3.91 4.074,12.12 0.906,2.73 0.449,3.13 v 3.12 l -0.449,3.13 -1.359,5.09 -0.457,5.08 v 10.55 l 0.457,9.77 -1.356,10.16 -8.593,30.87 -9.504,30.49 -2.254,9.39 -3.625,8.59 -6.785,10.95 -7.227,10.55 -2.266,3.91 -1.808,4.3 -1.356,4.29 -0.91,4.3 0.91,11.73 12.657,57.45 3.621,10.16 4.074,9.77 1.805,6.26 0.449,6.64 -2.703,12.9 v 7.82 l 0.898,3.52 1.805,3.91 0.461,4.29 0.449,4.69 -1.809,8.6 -2.714,8.21 -2.266,7.82 -0.899,2.73 -1.355,2.74 -3.621,3.91 -10.852,6.64 -3.164,2.35 -2.715,3.12 -0.91,1.96 -0.445,2.34 v 1.95 l 0.445,2.35 3.164,8.99 0.911,4.3 -0.45,4.69 -3.625,8.6 -2.715,5.08 -4.062,4.7 -4.531,3.51 -5.418,2.74 -15.832,3.9 -13.575,1.95 -13.562,3.14 -13.566,3.52 -13.114,4.29 -2.715,0.78 -3.164,0.4 -6.789,-0.4 -6.336,-1.17 -5.879,-0.78 -5.421,0.39 -1.356,1.96 -0.449,2.73 2.707,4.69 4.07,4.3 2.715,1.96 2.715,1.17 2.715,0.78 h 3.164 l 5.43,-0.39 5.418,0.39 12.667,3.9 6.329,2.74 5.879,3.12 7.234,3.53 7.25,2.34 7.683,1.95 7.688,1.18 32.566,1.17 7.688,1.17 7.683,2.35 7.235,3.51 6.34,4.7 3.613,0.39 3.625,0.78 4.52,3.52 4.062,3.9 4.531,3.91 4.973,3.13 h 2.711 l 2.258,-1.18 5.429,-6.25 6.786,-5.08 7.687,-4.3 7.684,-2.74 46.132,-0.78 2.715,-1.95 2.266,-2.35 2.707,-5.46 4.07,-12.51 2.719,-8.99 0.906,-1.18 v -1.56 l -0.449,-1.17 -0.91,-1.17 -1.356,-2.35 0.45,-2.35 6.336,-8.98 0.902,-2.74 0.906,-3.13 -3.164,-2.34 -2.266,-3.13 -1.355,-3.12 -0.902,-3.91 v -6.25 l 0.902,-6.25 0.457,-4.7 v -5.08 l -0.457,-3.13 -1.809,-2.73 -4.074,-3.52 -4.519,-2.73 -8.594,-4.7 -8.145,-5.86 -3.164,-2.73 -2.715,-3.13 -2.707,-7.82 -0.906,-12.12 -0.449,-11.72 v -12.12 l 0.898,-11.73 2.266,-7.42 9.043,-2.73 4.52,-3.13 -1.356,-8.21 -2.258,-7.81 -3.621,-7.44 -4.074,-7.42 -5.418,-8.99 -4.531,-9.37 -1.348,-6.65 -0.91,-6.64 0.449,-6.65 1.359,-7.04 2.715,-13.28 1.809,-13.68 v -5.09 l -0.453,-5.08 -0.449,-5.86 0.449,-5.47 1.359,-5.87 2.266,-5.07 5.418,-10.95 4.523,-10.94 1.817,-5.87 0.898,-5.47 0.906,-4.29 1.36,-4.31 1.804,-3.9 2.715,-3.91 10.852,-15.25 2.715,-4.68 1.816,-5.47 0.449,-2.35 v -2.74 l -0.906,-2.73 -0.902,-2.35 -4.981,-8.59 -4.969,-9 -4.074,-8.98 -4.07,-9.38 -1.359,-4.3 -1.356,-4.7 -0.449,-4.69 v -4.68 l 1.805,-9.39 1.359,-4.69 2.266,-3.9 1.359,-3.91 -0.461,-3.52 -1.359,-5.47 -2.704,-4.69 -3.625,-7.82 -0.906,-3.52 0.457,-3.9 1.36,-2.35 2.254,-2.34 3.164,-2.345 3.175,-3.137 2.254,-3.125 1.809,-3.511 1.355,-3.91 0.461,-3.907 v -4.304 l -0.461,-3.907 -3.609,-14.464 -4.523,-14.071 -12.219,-46.894 -6.328,-18.758 -1.356,-6.262 -0.906,-6.64 v -13.293 l 0.457,-6.637 1.355,-6.652 1.809,-6.641 1.805,-6.25 2.258,-6.258 1.367,-6.644 0.898,-6.637 0.449,-6.653 v -7.031 l -0.449,-6.648 -2.715,-13.285 -2.715,-17.586 -1.808,-18.371 v -17.977 l 0.91,-17.988 0.449,-12.11 -0.449,-12.121 -0.91,-12.105 -1.805,-12.129 v 0" /><path
         id="path64"
         style="fill:#a0cf1e;fill-opacity:1;fill-rule:evenodd;stroke:none"
         d="m 1118.9,1525.47 7.68,4.69 7.69,3.12 6.33,1.56 6.33,4.69 9.95,6.65 3.62,-4.7 4.53,-3.9 5.42,-3.13 5.88,-1.95 11.31,-2.73 11.75,-1.96 2.72,-0.78 2.27,-1.17 1.8,-1.57 1.81,-2.34 6.33,-9.38 3.17,-4.3 2.26,-2.35 2.71,-1.95 2.27,-1.18 3.16,-1.17 -0.91,-3.91 -1.35,-3.9 -2.26,-4.69 v -3.14 l 0.9,-2.73 4.07,-3.12 4.53,-2.35 3.15,-1.95 2.73,-2.35 1.35,-1.96 1.36,-2.33 0.45,-2.35 v -2.35 l -0.45,-7.81 -1.81,-7.82 -0.9,-4.69 -0.46,-4.69 2.27,-3.12 2.7,-2.36 3.17,-3.51 2.71,-3.52 -10.85,-19.15 -2.27,-3.9 -1.34,-4.3 -0.91,-4.7 v -8.2 l -0.45,-3.52 -1.36,-3.13 -2.26,-2.73 -9.51,-10.55 -2.25,-3.53 -1.81,-4.3 -6.34,-21.88 -5.41,-22.28 -3.63,-8.99 -7.68,-13.29 -2.27,-5.08 -1.81,-5.08 -1.35,-5.47 v -3.91 l 0.45,-3.91 0.9,-11.34 0.46,-10.93 -0.91,-10.95 -1.35,-10.95 -0.45,-8.98 2.25,-3.13 3.17,-2.73 6.34,-5.09 1.8,-1.95 0.91,-2.34 -2.71,-20.33 -2.72,-10.17 -2.71,-9.76 -2.72,-8.99 -1.81,-8.99 v -6.64 l 0.45,-6.65 2.27,-6.25 3.16,-5.87 14.48,-22.27 3.61,-7.04 2.71,-7.43 1.81,-7.81 1.36,-7.43 0.46,-7.82 v -8.21 l -1.36,-7.81 -1.36,-7.42 -1.36,-8.99 -2.71,-9 -2.27,-5.86 -3.16,-6.25 -3.16,-5.858 -7.24,-10.945 -4.07,-4.692 -1.36,-6.257 -0.45,-6.641 0.45,-6.262 1.82,-6.25 10.4,-25.789 1.36,-5.48 0.89,-5.465 -0.45,-5.469 -0.9,-5.09 -4.53,-8.984 -5.43,-8.606 -4.51,-7.027 -3.17,-7.434 -0.9,-3.125 v -3.125 l 0.45,-3.125 0.91,-3.125 8.13,-20.714 1.36,-4.696 0.91,-5.078 v -5.078 l -0.91,-5.078 -2.72,-6.652 -1.8,-6.637 -1.81,-7.043 -1.36,-7.031 -0.45,-7.032 v -14.07 l 0.9,-7.031 7.69,-25.41 -1.81,-6.25 -2.71,-6.25 -3.17,-5.481 -4.07,-5.469 -4.07,-13.679 -8.14,-12.903 -7.68,-13.293 -6.34,-14.058 -5.42,-14.074 -0.46,-5.871 0.46,-6.25 1.81,-5.477 3.16,-5.469 -4.07,-5.078 -2.71,-5.859 -4.07,-3.516 -4.07,-4.309 -0.46,11.731 -1.36,11.727 -1.8,11.718 -2.27,11.731 -0.9,3.125 -0.45,3.515 0.45,3.528 v 3.511 l 0.9,7.032 v 7.043 l 3.62,20.324 0.91,3.512 0.45,3.91 -0.45,5.078 -0.91,5.476 -1.35,5.079 -1.81,5.085 -4.52,9.375 -4.07,9.778 -0.91,4.687 -0.45,4.688 0.45,5.078 1.82,4.297 7.22,13.293 6.79,13.679 1.36,3.516 0.9,3.906 0.45,3.528 0.46,3.906 -0.91,7.809 -5.43,14.074 -1.35,7.031 v 6.262 l 0.9,6.25 1.81,5.867 2.72,5.469 4.52,9.765 3.62,9.778 1.35,8.601 0.46,8.594 v 8.594 l -0.91,8.211 -0.9,8.605 v 16.809 l 0.9,8.59 2.71,14.855 1.36,15.242 0.45,15.235 -1.36,14.858 -1.8,11.34 -2.72,10.55 -3.61,10.55 -4.53,10.56 -1.81,4.29 -1.36,4.69 -0.9,4.7 -0.44,5.07 -0.46,4.69 0.46,5.09 0.44,4.69 1.36,4.68 6.78,21.5 0.91,4.69 v 4.3 l -0.91,4.69 -1.35,4.3 -7.69,14.46 -8.15,14.47 -4.51,7.8 -3.17,8.22 -2.26,8.59 -1.36,9 0.45,6.64 0.91,7.04 0.9,6.64 1.81,7.03 1.81,6.65 0.91,7.42 v 7.04 l -0.46,7.04 -0.9,2.34 -1.36,2.34 -5.88,6.65 -2.26,2.34 -1.8,2.74 -0.46,2.73 0.9,2.35 4.98,6.26 14.93,16.42 2.25,3.9 1.81,3.91 v 2.34 l -0.45,2.35 -0.91,1.95 -3.61,3.91 -1.81,4.69 v 7.03 l 0.91,4.3 1.35,4.3 1.81,3.91 1.35,4.3 v 3.92 l -3.16,11.32 -0.45,3.91 v 3.92 l 1.81,8.98 0.9,8.99 0.45,9.38 v 8.99 l -0.9,7.04 -1.81,7.04 -3.17,6.64 -4.52,5.47 -6.33,4.68 -6.78,3.14 -7.69,2.34 -7.69,0.39 -26.68,0.39 -6.78,0.4 -6.79,1.94 -5.88,2.74 -5.43,3.91 -2.25,1.56 -2.27,0.78 -6.79,1.57 h -18.99 l -2.27,1.17 -2.25,1.57 1.36,5.47 1.8,3.9 2.72,3.52 3.16,3.13 3.17,2.74 3.62,2.34 4.06,1.96 4.53,1.55 4.08,0.79 13.56,2.73 13.11,3.52 12.67,4.69 12.66,5.08 4.53,2.35 4.51,2.73 7.7,6.65 3.16,3.91 2.71,4.29 2.26,4.3 1.82,4.7 v 0" /><path
         id="path66"
         style="fill:#1d1b19;fill-opacity:1;fill-rule:evenodd;stroke:none"
         d="m 486.629,133.672 h 27.59 l 57.89,-39.0822 -0.461,39.0822 h 66.036 V 1.17188 H 589.297 L 531.855,40.2617 V 0.789063 L 466.277,1.17188 465.828,133.672 h 20.801 v 0" /><path
         id="path68"
         style="fill:#ffffff;fill-opacity:1;fill-rule:evenodd;stroke:none"
         d="m 271.805,225.91 6.789,-8.988 0.449,-3.121 v -2.75 l -0.449,-3.121 -0.91,-2.739 -9.043,-4.679 -8.594,-5.481 -8.594,-5.859 -7.234,-6.641 -2.266,-0.781 h -2.258 l -2.265,0.391 -1.805,1.168 V 400.23 l -23.066,-26.191 -21.711,-26.969 -20.801,-28.14 -19.453,-28.918 2.265,-3.91 2.715,-3.122 3.164,-3.14 3.614,-3.121 -1.348,-3.52 -2.266,-2.73 h -4.968 l -4.981,-0.778 -4.523,-2.351 -4.071,-2.731 -5.879,-3.527 L 47.9375,378.34 V 228.648 l -1.8164,-1.949 -2.7148,-0.789 -3.1641,1.172 -2.2539,1.566 -2.7149,6.25 -3.625,5.864 -4.5195,5.476 -4.9726,5.082 -1.3555,3.512 v 1.957 l 0.4492,1.563 1.8047,4.687 2.2656,4.691 1.8086,3.129 1.3555,3.512 0.9101,3.52 0.4493,3.531 0.9101,26.566 0.4453,26.582 v 26.18 l -0.9062,26.582 -9.043,16.406 8.1445,3.133 7.2344,4.301 7.6875,4.687 6.7852,5.473 11.3086,-12.5 10.8515,-12.512 9.9492,-13.281 9.4922,-13.687 50.2069,-68.391 9.5,14.84 9.492,14.469 10.403,14.46 10.859,14.071 10.848,13.289 11.758,13.281 24.425,25.02 1.809,5.859 1.355,6.262 7.696,-0.403 7.683,-1.55 7.688,-7.039 8.144,-5.86 9.043,-5.078 9.5,-3.922 0.899,-3.512 v -3.519 l -13.563,-4.699 1.356,-161.02 v 0" /><path
         id="path70"
         style="fill:#1d1b19;fill-opacity:1;fill-rule:evenodd;stroke:none"
         d="m 466.277,398.27 h 14.922 l 14.922,-1.559 14.024,-3.52 14.027,-4.679 2.711,-9.391 1.808,-9.769 0.907,-4.68 0.449,-4.703 v -5.078 l -0.449,-4.7 -1.356,-19.152 -0.449,-19.141 -0.457,-5.867 -0.91,-5.851 -1.809,-5.871 -2.715,-5.469 -3.164,-5.078 -3.609,-4.703 -4.524,-4.289 -4.531,-3.911 -12.656,-8.589 -6.34,-3.532 -7.234,-3.117 -7.688,-2.742 -8.144,-0.777 0.461,73.089 1.804,73.079 v 0" /><path
         id="path72"
         style="fill:#1d1b19;fill-opacity:1;fill-rule:evenodd;stroke:none"
         d="m 442.762,400.23 -0.907,-142.66 -10.851,8.989 -9.949,9.773 -9.043,10.559 -8.145,11.32 -7.238,11.73 -6.328,12.508 -4.981,13.289 -3.609,13.282 -2.27,8.218 -1.355,8.602 v 8.59 l 0.906,8.609 2.258,3.891 3.621,3.129 3.613,1.953 4.524,1.179 3.172,-2.339 4.062,-1.961 3.625,-0.782 4.071,-0.398 6.777,5.48 6.34,7.039 h 21.707 v 0" /><path
         id="path74"
         style="fill:#ffffff;fill-opacity:1;fill-rule:evenodd;stroke:none"
         d="m 486.629,112.961 h 21.262 l 85.468,-58.2422 -0.898,58.2422 h 24.422 V 21.8906 h -21.258 l -84.57,57.8477 V 21.8906 h -24.426 v 91.0704 0" /></g></g></svg>