<?xml version="1.0" encoding="UTF-8" standalone="no"?>
<svg
   xmlns:dc="http://purl.org/dc/elements/1.1/"
   xmlns:cc="http://creativecommons.org/ns#"
   xmlns:rdf="http://www.w3.org/1999/02/22-rdf-syntax-ns#"
   xmlns:svg="http://www.w3.org/2000/svg"
   xmlns="http://www.w3.org/2000/svg"
   viewBox="0 0 113.38667 19.76"
   height="19.76"
   width="113.38667"
   xml:space="preserve"
   id="svg2"
   version="1.1"><metadata
     id="metadata8"><rdf:RDF><cc:Work
         rdf:about=""><dc:format>image/svg+xml</dc:format><dc:type
           rdf:resource="http://purl.org/dc/dcmitype/StillImage" /></cc:Work></rdf:RDF></metadata><defs
     id="defs6" /><g
     transform="matrix(1.3333333,0,0,-1.3333333,0,19.76)"
     id="g10"><g
       transform="scale(0.1)"
       id="g12"><path
         id="path14"
         style="fill:#ee2722;fill-opacity:1;fill-rule:nonzero;stroke:none"
         d="m 112.457,79.9727 c -0.359,5.3515 -1.785,10.7148 -4.644,15.3515 L 83.5352,137.805 c -1.7813,3.211 -3.2149,6.789 -3.9258,10.351 l -1.0703,-1.789 c -6.0703,-10.351 -6.0703,-23.554 0,-33.906 L 98.1719,78.5391 c 6.0701,-10.3516 6.0701,-23.5547 0,-33.9063 l -1.0664,-1.789 c -0.7188,3.5625 -2.1446,7.1406 -3.9336,10.3515 L 75.3281,84.25 63.9023,104.242 c -1.7851,3.219 -3.2148,6.785 -3.9257,10.36 l -1.0703,-1.789 c -6.0743,-10.352 -6.0743,-23.2036 0,-33.9146 v 0 l 19.6328,-33.914 c 6.0703,-10.3516 6.0703,-23.5664 0,-33.918 L 77.4688,9.28125 C 76.7539,12.8516 75.3281,16.4297 73.5391,19.6328 L 48.9063,62.1211 C 45.6914,67.8359 44.2656,74.2578 44.2656,80.6875 18.2031,73.8984 0,59.2578 0,42.4844 0,18.918 34.9844,0 78.1836,0 c 43.1994,0 78.1834,18.918 78.1834,42.4844 0.356,16.0625 -17.492,30.7031 -43.91,37.4883 z M 186.355,7.5 c 0.36,6.0664 1.071,9.9922 2.852,14.9922 8.215,-3.9258 18.926,-5.7109 26.777,-5.7109 13.571,0 21.422,4.2851 21.422,13.2031 0,8.5703 -5.707,12.5 -19.277,18.5703 l -7.496,2.8516 c -13.926,6.0781 -23.207,13.9296 -23.207,29.2812 0,16.7734 11.781,27.4885 35.347,27.4885 9.637,0 18.563,-1.434 26.774,-4.285 -0.359,-5.7152 -1.426,-10.3519 -2.859,-14.641 -7.852,2.8594 -17.489,4.2891 -24.278,4.2891 -12.851,0 -18.562,-5 -18.562,-12.8516 0,-7.5 5.711,-12.1406 16.062,-16.4297 l 7.86,-3.2109 c 18.562,-7.8516 26.418,-16.4141 26.418,-30.7031 0,-16.7774 -12.852,-28.56255 -37.84,-28.56255 -11.789,0 -21.778,1.78516 -29.993,5.71875 z M 333.086,77.8242 V 4.28125 H 318.09 l -0.711,8.92185 C 313.094,6.78125 307.027,2.5 296.668,2.5 c -19.277,0 -32.484,14.2813 -32.484,38.9063 0,25.7031 13.921,40.7031 41.054,40.7031 10.707,-0.3516 19.633,-1.4219 27.848,-4.2852 z M 317.02,21.0664 v 46.043 c -3.211,0.7265 -7.137,0.7265 -11.782,0.7265 -16.781,0 -24.633,-10.3515 -24.633,-26.7812 0,-15 6.071,-25.7031 20.352,-25.7031 6.781,0.3515 11.777,2.5 16.063,5.7148 z m 98.894,32.4883 V 4.28125 H 399.848 V 50.6953 c 0,11.7774 -3.93,17.1406 -19.996,17.1406 -3.926,0 -8.211,-0.3632 -12.852,-1.0781 V 4.28125 H 350.938 V 77.8242 c 10.351,2.5 21.777,4.2852 29.277,4.2852 27.129,-0.3516 35.699,-10.711 35.699,-28.5547 z m 44.988,-37.4883 c 4.629,0 9.278,0.7149 12.481,2.1367 -0.352,-4.2734 -1.063,-9.27341 -1.778,-13.56247 -4.277,-1.78907 -9.277,-2.5 -13.574,-2.5 -15.703,0 -25.699,7.14062 -25.699,24.99217 v 77.4692 c 5,1.789 11.07,2.5 16.07,2.5 V 79.2578 h 25.703 c -0.351,-5 -0.722,-9.6484 -1.425,-13.9219 H 448.402 V 29.2813 c 0,-9.2891 4.641,-13.2149 12.5,-13.2149 z m 86.739,61.7578 V 4.28125 H 532.66 l -0.722,8.92185 C 527.66,6.78125 521.586,2.5 511.234,2.5 c -19.277,0 -32.488,14.2813 -32.488,38.9063 0,25.7031 13.914,40.7031 41.063,40.7031 10.703,-0.3516 19.277,-1.4219 27.832,-4.2852 z M 531.227,21.0664 v 46.043 c -3.215,0.7265 -7.141,0.7265 -11.789,0.7265 -16.778,0 -24.629,-10.3515 -24.629,-26.7812 0,-15 6.074,-25.7031 20.351,-25.7031 6.778,0.3515 12.141,2.5 16.067,5.7148 z m 99.246,32.4883 V 4.28125 H 614.047 V 50.6953 c 0,11.7774 -3.926,17.1406 -19.981,17.1406 -3.933,0 -8.222,-0.3632 -12.851,-1.0781 V 4.28125 H 565.141 V 77.8242 c 10.351,2.5 21.777,4.2852 29.277,4.2852 27.129,-0.3516 36.055,-10.711 36.055,-28.5547 z M 712.23,107.102 V 4.28125 h -15 l -0.722,9.28515 C 692.23,6.78125 686.156,2.5 675.453,2.5 c -19.277,0 -32.48,14.2813 -32.48,38.9063 0,25.7031 13.925,40.7031 41.054,40.7031 4.278,0 8.203,-0.3516 12.129,-1.0703 v 24.2739 c 5,1.429 10.723,1.789 16.074,1.789 z M 696.156,21.0664 v 45.3399 c -4.277,0.7031 -8.554,1.4296 -12.851,1.4296 -16.055,0 -23.555,-10 -23.555,-26.7812 0,-15 6.074,-25.7031 20.352,-25.7031 6.425,0.3515 11.777,2.5 16.054,5.7148 z m 97.461,14.6367 h -51.758 c 2.149,-13.2109 9.629,-19.2734 24.278,-19.2734 8.926,0 17.851,1.7734 25.703,5.7031 -0.723,-4.2812 -1.426,-9.9922 -2.5,-14.6328 -7.5,-3.21875 -15,-4.64844 -23.926,-4.64844 -27.129,0 -39.98,15.00004 -39.98,39.99224 0,21.7773 10,39.2656 35.703,39.2656 23.203,0 33.203,-15 33.203,-33.5547 0,-5 0,-8.5703 -0.723,-12.8516 z m -51.758,13.5664 h 36.407 c 0,12.1368 -6.426,19.2774 -17.481,19.2774 -11.777,-0.3594 -17.851,-6.7891 -18.926,-19.2774 z m 108.536,31.7696 c 0,-5 -0.723,-10.7032 -1.426,-13.9297 -3.926,0.3633 -7.5,0.7265 -12.149,0.7265 -3.925,0 -7.851,-0.3632 -11.777,-0.7265 V 4.28125 H 808.969 V 77.8242 c 6.797,2.5 18.574,4.2852 27.5,4.2852 4.629,-0.3516 10.351,-0.3516 13.926,-1.0703" /></g></g></svg>